<svg version="1.2" xmlns="http://www.w3.org/2000/svg" viewBox="0 0 667 667" width="667" height="667">
	<defs>
		<clipPath clipPathUnits="userSpaceOnUse" id="cp1">
			<path d="m0 0h666.67v666.67h-666.67z"/>
		</clipPath>
	</defs>
	<style>
		.s0 { fill: #100f0d } 
		.s1 { fill: #211d1d } 
		.s2 { fill: #000000 } 
		.s3 { fill: #ffffff } 
	</style>
	<g id="g10">
		<g id="g12">
			<g id="Clip-Path: g14" clip-path="url(#cp1)">
				<g id="g14">
					<g id="g20">
					</g>
					<g id="g24">
					</g>
					<g id="g28">
						<path id="path30" class="s0" d="m215.58 404.78c1.71 2.57 3.37 5.27 4.79 7.28 1.42 2.01 2.37 2.91-0.09 3.16-2.46 0.24-4.45 0.47-6.13 0.42-1.68-0.05-2.23-1.64-3.65-3.46q-2.3-3.06-4.26-6.34c-1.04-1.71-3.23-4.34-0.77-4.17 2.46 0.17 6.03-0.42 7.79 0.22 0.53 0.2 1.76 2.07 2.32 2.89z"/>
					</g>
					<g id="g32">
						<path id="path34" class="s0" d="m215.79 295.15c0.24-0.79 0.73-1.89 0.73-1.89 0 0-2.16-1.15-4-1.97-3.16-1.38-10.63-5.68-13.4-7.46-1-0.64-4.54-2.17-4.54-2.17 0 0 2.63-0.61 4.35-0.93 2.66-0.49 9.07-1.48 12.43-1.97 2.02-0.3 4.05-0.64 4.05-0.64l-1.18-2.62c-1.48-3.25-4.15-10.26-5.63-13.32-0.74-1.53-2.01-4.6-2.01-4.6 0 0 2.21 1.1 3.59 1.84 2.77 1.48 11.55 7.1 14.41 8.68 1.43 0.79 3.07 1.82 3.07 1.82 0 0 1.06-2.07 1.67-3.55q0.99-2.32 2.27-4.5c0 0-1.75-0.68-2.37-0.97-1.67-0.79-22.99-11.55-26.05-13.03-2.03-0.98-3.28-3.49-3.28-3.49 0 0-1.45 2.34-1.85 2.9-1.18 1.68-2.07 3.46-2.96 4.74q-0.21 0.37-0.28 0.79c0 0 1.16 2.03 2.95 5.13 2.27 3.95 7.1 11.74 8.19 13.71q0.36 0.65 0.39 1.38c0 0-1.66 0.36-4.73 0.79-4.94 0.69-11.25 2.17-14.31 2.76-1.53 0.3-3.91 0.88-3.91 0.88 0 0-0.48 1.24-1.12 2.76q-1.12 2.52-1.58 5.25c-0.12 0.69-0.5 2.54-0.5 2.54 0 0 1.34-0.74 1.81-0.96 1.06-0.5 2.06-0.68 5.19 0.27 4.54 1.38 13.42 6.51 18.55 9.18 5.13 2.66 7.38 3.97 7.38 3.97z"/>
					</g>
					<g id="g36">
						<path id="path38" class="s0" d="m340.12 170.63c3.11-0.21 12.37 0.41 16.28 0.69 4.14 0.3 15.39 1.48 18.35 2.37 1.48 0.45 2.98 0.75 2.98 0.75 0 0-0.12 0.93-0.32 1.81-0.39 1.78-1.11 4.14-1.4 5.42q-0.36 1.31-0.96 2.53c0 0-0.95-1.87-2.76-2.43-1.81-0.56-2.76-0.85-6.2-1.32-2.22-0.3-6.56-0.72-6.56-0.72 0 0 0.13 4.94 0.02 8.53-0.13 4.3-0.35 11.34-0.59 16.12-0.12 2.42-0.33 6.14-0.33 6.14 0 0-2.51-0.33-4.56-0.49-1.88-0.15-4.22-0.23-4.22-0.23 0 0 0.43-6.41 0.73-10.66 0.29-4.25 0.69-9.57 0.69-13.42 0-3.85 0.1-6.46 0.1-6.46q-3.24-0.38-6.52-0.39c-3.25 0.03-3.47-0.17-5.92 0.62-1.3 0.42-3.03 1.02-3.03 1.02 0 0-0.21-2.03-0.21-3v-5.2c0-0.53-0.12-1.54-0.12-1.54 0 0 3.95-0.1 4.55-0.14z"/>
					</g>
					<g id="g40">
						<path id="path42" class="s0" d="m380.18 195.98c1.73-1.04 1.98-0.93 4.14-2.16q0.65-0.36 1.34-0.65c0 0 1.29 0.57 2.81 1.14 2.36 0.89 4.44 2.27 7 3.36 2.08 0.88 5.58 2.45 5.58 2.45 0 0-1.04 0.59-1.43 0.9-2.37 1.82-3.16 2.18-4.94 3.36-0.41 0.27-1.13 0.73-1.13 0.73 0 0-1.86-0.77-2.91-1.23q-2.79-1.24-5.42-2.76c-2.27-1.28-3.65-1.58-5.04-2.51-0.69-0.47-2.45-1.3-2.45-1.3 0 0 1.58-0.79 2.45-1.33z"/>
					</g>
					<g id="g44">
						<path id="path46" class="s0" d="m420.43 203.29c1.26-2.22 6.62-5.33 10.86-4.83 4.24 0.49 6.79 1.44 9.87 4.99 1.57 1.81 5.22 10.34 5.22 10.34 0 0-1.66 1.4-2.37 1.83-2.52 1.54-5.55 3.16-5.55 3.16 0 0-1.16-6.89-3.43-9.55-2.27-2.66-5.03-3.75-7.3-2.56-2.27 1.18-0.89 5.13 2.27 8.97 3.15 3.85 7.79 13.87 1.28 20.68-6.52 6.81-16.87 5.44-22 0.25-6.87-6.94-4.9-10.49-5.72-11.97-0.79-1.39-0.32-2.19-0.32-2.19l9.11-3.44c0 0-1.21 3.53-0.79 4.73 0.74 2.19 0.79 3.83 2.48 5.92 3.71 4.64 9.5 3.38 11.67 0.79 0.82-0.96 1.78-2.42 0.85-6.13-0.51-2.03-3.74-4.05-6.11-8.98-2.37-4.94-1.68-9.08 0-12.03"/>
					</g>
					<g id="g48">
						<path id="path50" class="s0" d="m458.55 406.99c1.5-3.05 3.05-5.08 4.15-7.66 0.53-1.24 1.28-2.76 1.28-2.76 0 0 1.65 2 2.39 3.03 0.9 1.24 2.82 4.1 2.82 4.1q-0.72 1.3-1.31 2.66c-1.74 4.08-4.28 7.77-5.52 10.29-0.51 1.04-1.32 2.73-1.32 2.73q-1.22-1.54-2.61-2.96c-0.82-0.82-2.79-3.74-2.79-3.74 0 0 2.57-5 2.91-5.69z"/>
					</g>
					<g id="g52">
						<path id="path54" class="s0" d="m435.24 414.41c1.45-1.88 3.34-4.19 4.5-5.46 0.85-0.93 2.41-2.66 2.41-2.66 0 0 0.28 2.73 0.37 3.42 0.31 2.25 0.23 3.77 0.89 8.46 0.74 5.29 0.79 6.97 1.45 12.1 0.39 2.94 1.01 6.41 1.01 6.41 0 0 1.47 1.37 2.57 2.37 2.94 2.64 4.56 3.71 5.53 4.58 0.36 0.33 3.19 2.75 3.19 2.75 0 0-1.1 1.11-2.1 2.17-1.61 1.71-3.27 3.56-4.39 4.5q-0.53 0.48-0.92 1.07c0 0-2.47-2.63-3.89-3.95-2.69-2.48-6.49-6.2-6.49-6.2 0 0-0.66-0.15-1.45-0.33-1.85-0.39-4.77-0.49-7.8-0.67-4.35-0.25-8.95-0.79-13.26-1.34q-3.2-0.32-6.39-0.04c0 0 0.92-0.98 1.36-1.4 1.44-1.32 1.9-1.8 3.35-3.02l3.21-2.7q2.13 0.71 4.34 1.12c2.79 0.51 5.99 0.33 9.67 0.57 2.42 0.16 5.13 0.12 5.13 0.12 0 0 0-2.76-0.13-3.9-0.33-3.22-0.57-6.91-0.64-9.29-0.1-2.95-0.62-5.88-1.54-8.68"/>
					</g>
					<g id="g56">
						<path id="path58" class="s0" d="m303.99 492.54c0.51-2.95 1.38-8.15 1.77-9.57 0.38-1.41 0.11-1.29 1.67-1.04 1.7 0.27 9 1.77 11.57 2.2q0.44 0.09 0.88 0.08c0 0 0.4-2.29 0.6-3.5 0.28-1.56 0.5-3.07 0.5-3.07q-0.62-0.2-1.26-0.29c-1.3-0.13-6.9-1.27-9.23-1.62-1.31-0.2-3.02-0.57-3.02-0.57 0 0 0.16-0.88 0.29-1.58 0.48-2.41 1.19-5.49 1.24-6.31q0.13-0.84 0.34-1.66c0 0 1.38 0.2 2.66 0.48 4.16 0.91 8.58 1.5 11.59 2.17q2.42 0.64 4.61 1.84c0 0 0.35-1.92 0.68-3.44 0.33-1.51 0.33-1.87 0.67-3.34q0.1-0.5 0.12-1.01-2-0.5-4.07-0.69c-3.4-0.31-11.57-2.08-15.49-2.56-2.81-0.35-8.2-1.41-8.2-1.41 0 0 1.05 2.22 0.96 2.74-0.29 1.82-1.34 5.6-3.43 15.17-1.69 7.73-2.62 12.9-3.13 14.21q-0.4 1.27-0.6 2.59c0 0 1.28 0.31 2.31 0.5 1.92 0.35 5.65 1.14 5.65 1.14 0 0 0.23-0.98 0.32-1.46z"/>
					</g>
					<g id="g60">
						<path id="path62" class="s0" d="m240.34 246.6c-2.45-1.83-6.81-5.03-7.92-6.03-1.1-1.01-1.13-0.7-0.05-1.98 1.18-1.38 6.53-7.15 8.32-9.23q0.32-0.34 0.56-0.75l-2.93-2.16c-1.29-0.97-2.58-1.87-2.58-1.87q-0.51 0.45-0.95 0.97c-0.83 1.11-4.92 5.53-6.51 7.44-0.9 1.06-2.17 2.41-2.17 2.41 0 0-0.74-0.55-1.3-0.99-1.97-1.55-4.54-3.5-5.2-4.05-0.66-0.56-1.26-1.19-1.26-1.19 0 0 0.85-1.01 1.8-2.02 3.1-3.26 6.05-6.9 8.29-9.26q1.92-1.86 4.21-3.23c0 0-1.58-1.21-2.82-2.21-1.24-0.99-1.55-1.18-2.73-2.15q-0.42-0.32-0.88-0.58-1.55 1.54-2.85 3.28c-2.13 2.88-8.22 9.29-10.79 12.54-1.84 2.34-5.76 6.62-5.76 6.62 0 0 2.63 0.11 3.06 0.42 1.54 1.11 4.47 3.8 12.21 10.13 6.26 5.11 10.95 8.74 11.88 9.8q0.98 0.96 2.09 1.74c0 0 0.98-0.99 1.71-1.81 1.38-1.54 3.81-4.84 3.81-4.84 0 0-0.85-0.7-1.25-1"/>
					</g>
					<g id="g64">
						<path id="path66" class="s0" d="m331.3 207.11c-0.4-0.43-7.89-8.29-8.68-8.69-0.79-0.39-0.79-0.14 0.26-1.45 1.06-1.31 5.66-6.83 4.47-14.07-1.18-7.23-7.47-11.84-16.97-10.66-9.5 1.19-18.67 4.3-18.67 4.3l-3.65 1.18 1.39 1.76c0 0 7.77 29.47 8.95 32.76 0.39 1.12 1.01 3.94 1.01 3.94 0 0 2.66-1.06 4.13-1.52q1.89-0.55 3.83-0.84c0 0-0.7-2.46-0.79-2.96-0.4-1.97-1.24-4.26-1.65-6.03-0.25-1.08-0.3-1.38-0.53-1.81 0 0 7.69-2.37 10.19-2.11 2.5 0.27 3.95 1.98 6.05 4.48q1.57 1.98 3.37 3.77c0.35 0.35 1.26 1.18 1.26 1.18 0 0 2.92-0.29 3.89-0.48q2.03-0.32 4.01-0.85c0 0-1.46-1.46-1.87-1.9zm-11.9-20.8c-0.06 4.44-3.46 6.08-8.49 7.6-4.24 1.28-5.81 1.46-7.79 1.97h-0.79l-4.12-14 1.11-0.49c0 0 7.86-2.6 12.53-2.32 5.72 0.33 7.63 2.74 7.57 7.22"/>
					</g>
					<g id="g68">
						<path id="path70" class="s0" d="m473.32 246.25c-1.19-2.7-12.76-16.97-13.95-18.22-0.59-0.63-2.12-1.89-2.12-1.89 0 0-0.57 1.88-1.03 2.27-1.45 1.26-2.23 1.97-5.19 4.93-2.96 2.96-6.45 6.12-9.02 8.36-3.32 2.9-6.9 5.83-8.03 6.58l-5.03 3.4c0 0 0.9 1.23 1.15 1.58 0.91 1.18 1.39 1.15 2.57 3.26 0.51 0.9 0.4 0.48 1.39 2.23q1.54-1.29 3.21-2.42c2.5-1.52 4.74-3.82 5.66-4.28q0.54-0.39 1.01-0.84 1.79 2.09 3.2 4.46c1.71 3.03 2.43 3.42 5.33 6.45 2.89 3.02 6.97 3.49 11.31 2.76 4.34-0.73 6.91-2.63 9.15-6.71 2.23-4.08 1.57-9.21 0.39-11.9m-9.47 10.98c-2.77 1.12-5.07 0.92-7.04-1.05-1.98-1.98-2.74-2.96-4.56-5.59-1.5-2.18-3.21-5.03-3.21-5.03q0.53-0.58 1.12-1.09c0.83-0.55 6.71-5.92 7.04-6.71 0.08-0.19 0.5-0.7 0.51-0.76 0-0.06 0-0.08 0 0q0.13 0.5 0.54 0.82c0.92 0.86 2.37 3.1 4.61 5.66 2.24 2.57 3.61 4.31 4.08 7.3 0.46 3-0.33 5.33-3.09 6.45z"/>
					</g>
					<g id="g72">
						<path id="path74" class="s0" d="m492.24 349.62c-3.15-0.4-7.01-0.4-13.11-1.19-6.11-0.79-11.65-1.38-14.32-1.48-0.88-0.03-1.74-1.4-1.74-1.4 0 0-0.53 3.18-0.73 4.36-0.39 2.37-2.34 11.74-2.83 16.87-0.49 5.13-1.58 15.1 14.6 16.97 16.19 1.88 19.44-7.59 20.03-10.85 0.6-3.26 1.95-15 2.34-18.55 0.2-1.76 0.79-6.32 0.79-6.32 0 0-3.45 1.78-5.04 1.59m-4.61 19.14c-1.18 3.65-1.97 8.78-11.35 7.89-9.37-0.89-10.26-5.72-9.77-11.15 0.5-5.43 1.58-11.64 1.58-11.64l4.35 0.59c2.95 0.2 7.49 0.69 12.23 1.28 4.73 0.59 5.23 0.4 5.23 0.4 0 0-1.08 8.98-2.27 12.63z"/>
					</g>
					<g id="g76">
						<path id="path78" class="s0" d="m283.71 481.75c0.22-3.49 0-7.54 0.14-13.76 0.15-6.23-0.13-12.43 0.62-13.54 0.75-1.1 2.59-1.72 2.59-1.72 0 0-4.74-2.81-7.08-4.19-2.34-1.37-5.64-2.98-5.64-2.98 0.39 0.8 0.52 1.7 0.36 2.57-0.31 1.29-1.63 2.14-5.09 4.57-3.46 2.42-15.97 11.89-19.13 13.51-1.95 0.99-4.09 1.55-6.28 1.65l9.64 6.8c0 0 0.83-2.7 2.45-3.51 2.53-1.25 2.87-1.9 2.87-1.9l17 9.37c0 0-0.33 0.88-0.37 3.43-0.03 1.58-1.62 2.98-1.62 2.98l10.52 4.53c0 0-1.19-4.32-0.98-7.81zm-6.43-12.04q-0.11 1.11-0.07 2.23l-12.08-6.46c0 0 4.8-4.2 6.37-5.35 2.05-1.5 5.86-4.65 5.86-4.65v6.82c0 3.2 0.06 5.98-0.06 7.41"/>
					</g>
					<g id="g80">
						<path id="path82" class="s0" d="m265.08 186.91c-12.02 0-21.76 9.42-21.76 21.04 0 11.63 9.74 21.05 21.76 21.05 12.02 0 21.76-9.42 21.76-21.05 0-11.62-9.74-21.04-21.76-21.04zm0 34.6c-7.74 0-14.02-6.07-14.02-13.56 0-7.49 6.28-13.56 14.02-13.56 7.74 0 14.02 6.07 14.02 13.56 0 7.49-6.28 13.56-14.02 13.56z"/>
					</g>
					<g id="g84">
						<path id="path86" class="s0" d="m191.19 300.9c-11.41 0-20.66 9.25-20.66 20.66 0 11.42 9.25 20.67 20.66 20.67 11.41 0 20.66-9.25 20.66-20.67 0-11.41-9.25-20.66-20.66-20.66zm0 33.55c-7.12 0-12.9-5.77-12.9-12.9 0-7.12 5.78-12.9 12.9-12.9 7.12 0 12.9 5.78 12.9 12.9 0 7.13-5.78 12.9-12.9 12.9z"/>
					</g>
					<g id="g88">
						<path id="path90" class="s0" d="m199.83 352c-0.99 0.55 1.09 0.9 1.46 1.19 3.74 2.85 5.59 7.28 4.93 12.41-0.98 7.5-7.66 12.85-14.91 11.91-7.26-0.94-12.35-7.81-11.37-15.32 0.44-3.41 2.27-6.54 4.46-7.87 0.56-0.34 2.02-0.39 1.86-0.82-0.13-0.33-6.11-3.26-8.31-4.27-0.52-0.23-0.72-0.39-0.88-0.36-0.17 0.02-0.17 0.23-0.27 0.36-2.83 3.36-4.64 7.47-5.2 11.84-1.6 12.29 6.71 23.5 18.58 25.04 11.87 1.54 22.78-7.16 24.36-19.45 0.95-7.28-1.3-13.33-5.98-18.03-0.12-0.12-0.12-0.29-0.27-0.31q-0.2-0.01-0.36 0.07z"/>
					</g>
					<g id="g92">
						<path id="path94" class="s0" d="m483.14 265.85c0 0-0.73 2.37-3.7 3.49-3.99 1.54-23.89 9.78-26.55 10.88-2.65 1.09-4.53 0.08-4.53 0.08l10.6 24.1 5.98-2.52q-2.59-4.18-4.38-8.76c-2.15-5.38-2.94-7.49-2.94-7.49l10.59-4.25c0 0 3.15 7.89 3.77 9.19q0.56 1.06 0.63 2.25l6.32-2.8q-0.74-1.12-1.26-2.37c-0.63-1.48-3.5-8.95-3.5-8.95l6.71-2.74c0 0 4.26 10.32 5.06 12.32q0.72 1.73 1.08 3.56l6.06-2.65z"/>
					</g>
					<g id="g96">
						<path id="path98" class="s0" d="m496.6 307.07c-1.03 1.48-2.68 2.4-4.48 2.49-4.16 0.25-25.14 2.18-27.94 2.43-1.57 0.2-3.14-0.36-4.24-1.5l2.71 29.74 6.31-0.62q-1.16-5.44-1.47-11c-0.39-6.56-0.5-9.14-0.5-9.14l11.11-0.88c0 0 0.58 9.64 0.8 11.25q0.19 1.33-0.08 2.65l6.71-0.79q-0.36-1.48-0.47-3c-0.15-1.81-0.6-10.89-0.6-10.89l7.06-0.61c0 0 0.89 12.63 1.05 15.09q0.16 2.1-0.05 4.19l6.43-0.73z"/>
					</g>
					<g id="g100">
						<path id="path102" class="s0" d="m337.16 462.7c1.37 0.96 2.21 2.52 2.27 4.2 0.14 3.86 1.52 23.34 1.7 25.94 0.14 1.47-0.43 2.92-1.53 3.9l28.86-2.61-0.5-6.78c0 0-1.04 1.08-7.41 1.81-6.23 0.7-12.24 1.25-12.24 1.25l-0.69-10.1c0 0 9.66-1.07 11.19-1.23q1.28-0.15 2.54 0.13l-0.57-6.82c-0.88 0.44-1.84 0.68-2.82 0.72-1.73 0.1-10.85 1.07-10.85 1.07l-0.33-6.24c0 0 12.53-1.3 14.85-1.4q2.01-0.09 4 0.15l-0.64-6.3z"/>
					</g>
					<g id="g104">
						<path id="path106" class="s0" d="m406.56 442.97q0.79 1.21 1.37 2.53c0.57 1.67 1.62 3.63 2.03 4.84 0.15 0.45 0.71 1.18 0.92 2.62 0 0-2.04-1.11-3.69-0.66-1.65 0.45-2.52 0.7-5.35 2.06-1.84 0.88-4.53 2.4-4.53 2.4 0 0 2.15 3.99 3.84 7.03 2.03 3.62 4.91 9.93 7.09 14.01 1.1 2.08 2.78 5.27 2.78 5.27 0 0-2.07 0.99-3.71 1.9-1.49 0.83-3.32 1.95-3.32 1.95 0 0-2.84-5.53-4.71-9.2-1.87-3.67-3.77-8.64-5.67-11.84-1.9-3.2-3.47-5.84-3.47-5.84 0 0-7.89 4.25-9.39 6.15-0.79 1.01-1.79 2.37-1.79 2.37 0 0-1.19-1.58-1.65-2.37l-2.58-4.34c-0.27-0.45-1.19-2.04-1.19-2.04z"/>
					</g>
					<g id="g108">
						<path id="path110" class="s0" d="m212.05 441.97q2.47-1.32 4.76-2.93 1.85-1.32 3.49-2.89c0 0 1.7 2.51 4.21 6.03 3.11 4.37 7.56 9.31 10.84 9.6 2.04 0.18 4.74-0.47 4.57-4.67-0.05-1.44-1.62-3.08-2.87-5.51-1.08-2.1-2.11-3.85-3.23-6.22-1.38-2.94-2.26-5.35-2.36-7.98-0.17-4.64 4.34-8.88 11.2-6.99 6.86 1.9 12.97 8.18 17 13.49 1.65 2.19 2.62 2.77 2.62 2.77 0 0-2.27 1.62-4.41 3.38-1.95 1.61-3.83 2.94-3.83 2.94 0 0 0.12-2.34-1.68-5.6-2.82-5.1-6.54-8.9-9.4-9.15-1.76-0.16-2.47 1.08-2.43 2.16 0.04 1.09 1.63 3.09 3.46 5.71q1.86 2.78 3.34 5.78c1.19 2.3 2.03 4.39 2.12 6.93 0.3 8.49-6.71 13.39-16.24 10.75-5.03-1.4-13.62-10.61-15.48-13.15-1.45-1.98-3.41-3.52-5.68-4.45z"/>
					</g>
					<g id="g112">
					</g>
					<g id="g116">
					</g>
					<g id="g120">
					</g>
					<g id="g124">
					</g>
					<g id="g128">
					</g>
					<g id="g132">
					</g>
					<g id="g136">
					</g>
					<g id="g140">
					</g>
					<g id="g144">
					</g>
					<g id="g148">
					</g>
					<g id="g152">
					</g>
					<g id="g156">
					</g>
					<g id="g160">
					</g>
					<g id="g164">
					</g>
					<g id="g168">
						<path id="path170" class="s1" d="m333.55 531.38c-109.32-0.15-197.83-88.9-197.68-198.23 0.15-109.32 88.9-197.83 198.22-197.69 109.33 0.16 197.84 88.9 197.69 198.23-0.1 79.47-47.72 151.16-120.92 182.09-24.46 10.35-50.75 15.65-77.31 15.6zm0-383.74c-102.1 0-185.16 83.07-185.16 185.16 0 102.1 83.06 185.16 185.16 185.16 102.1 0 185.16-83.06 185.16-185.16 0-102.1-83.06-185.16-185.16-185.16z"/>
					</g>
					<g id="g172">
						<path id="path174" class="s2" d="m438.89 333.53c0 58.58-47.49 106.06-106.07 106.06-58.58 0-106.04-47.48-106.04-106.06 0-58.57 47.48-106.06 106.06-106.06 58.57 0 106.06 47.48 106.06 106.06"/>
					</g>
					<g id="g176">
						<path id="path178" class="s3" d="m398.27 262.04l-43.87 17.54 36.31-34.95c0 0-1.12-1.14-10.82-6.22q-6.82-3.47-14.12-5.73c-1.7 1.58-6.99 6.56-13.77 13.18-3.61 3.52-7.65 7.84-11.84 11.87-7.73 7.45-15.95 15.24-22.77 21.45-22.07 20.08-40.42 40.02-40.42 40.02 0 0 19.61-8.29 35.56-15.29 15.95-7 33.9-15.95 33.9-15.95 0 0-21.53 19.94-37.1 35.29-15.56 15.35-40.26 39.52-40.26 39.52 0 0 16.36-6.62 28.52-12.4 12.16-5.79 24.52-11.17 24.52-11.17 0 0-11.36 15.75-27.11 34.3-14.75 17.36-30.76 36.76-32.76 39.18 0.69 0.63 1.55 1.4 2.43 2.11l126.83-109.49-52.44 21.54z"/>
					</g>
					<g id="g180">
					</g>
					<g id="g184">
					</g>
					<g id="g188">
					</g>
					<g id="g192">
					</g>
				</g>
			</g>
		</g>
	</g>
</svg>