<svg version="1.2" xmlns="http://www.w3.org/2000/svg" viewBox="0 0 667 667" width="667" height="667">
	<defs>
		<clipPath clipPathUnits="userSpaceOnUse" id="cp1">
			<path d="m0 0h666.67v666.67h-666.67z"/>
		</clipPath>
	</defs>
	<style>
		.s0 { fill: #000000 } 
		.s1 { fill: #211d1d } 
	</style>
	<g id="g10">
		<g id="g12">
			<g id="Clip-Path: g14" clip-path="url(#cp1)">
				<g id="g14">
					<g id="g20">
					</g>
					<g id="g24">
					</g>
					<g id="g28">
					</g>
					<g id="g32">
					</g>
					<g id="g36">
					</g>
					<g id="g40">
					</g>
					<g id="g44">
					</g>
					<g id="g48">
					</g>
					<g id="g52">
					</g>
					<g id="g56">
					</g>
					<g id="g60">
					</g>
					<g id="g64">
					</g>
					<g id="g68">
					</g>
					<g id="g72">
					</g>
					<g id="g76">
					</g>
					<g id="g80">
					</g>
					<g id="g84">
					</g>
					<g id="g88">
					</g>
					<g id="g92">
					</g>
					<g id="g96">
					</g>
					<g id="g100">
					</g>
					<g id="g104">
					</g>
					<g id="g108">
					</g>
					<g id="g112">
						<path id="path114" class="s0" d="m138.64 216.93c-7.77-4.21-10.93-5.82-10.93-5.82 1.57-1.04 2.91-2.38 3.95-3.95 1.65-2.56 7.78-12.76 12.63-22.21 4.84-9.44 3.57-16.33-1.03-25.01-4.59-8.67-15.65-16.18-27.3-17.86-9.37-1.35-13.79 0.5-19.79 5.74-5.99 5.23-13.26 16.2-20.41 27.56q-8.07 13.08-14.52 27.02c-2.9 6.35-0.82 2.98 4.23 2.97 1.29 0 2.78 0.57 4.44 1.18 6.49 2.37 29.34 14.91 48.36 25.38 14.15 7.78 16.94 9.4 18.74 10.91 1.92 1.62 1.88 7.5 3.41 4.07 1.37-3.07 6.75-13.79 8.6-17.03 1.73-3.02 3.24-5.6 3.8-6.56 1.71-2.93-1.98-0.39-3.87-1.18-3.23-1.34-4.77-2.2-10.31-5.21zm-17.46-35.33c-3.33 5.92-9.7 17.47-10.15 18.11-0.44 0.64-0.5 1.04-1.21 0.64-1.28-0.73-17.13-9.03-17.13-9.03 0 0-0.7-0.56-0.19-1.19 0.67-0.83 7.22-12.63 11.62-19.13 4.69-6.92 11.52-5.81 15.35-3.45 5.11 3.16 5.11 8.01 1.71 14.05z"/>
					</g>
					<g id="g116">
						<path id="path118" class="s0" d="m251.47 137.6c-1.01-0.25-1.86-0.39-4.7-1.72-2.83-1.32-10.56-6.03-21.7-13.11-3.74-2.37-10.7-6.85-18.4-11.81l-20.37-13.12c-7.79-5.01-15.79-10.01-16.88-10.77-1.51-1.03-1.07-2.39-0.93-3.36 0.26-1.87-0.02-2.1-1.04-1.42-1.28 0.84-5.05 3.36-9.47 6.57-4.42 3.21-8.83 6.52-10.42 7.76-4.09 3.18-5.65 4.11-3.23 4.39 1.65 0.19 3.12 0 3.75 2.11 3.56 11.74 13.97 46.78 15.09 49.66 1.32 3.4 2.99 9.9 5.28 17.65 1.75 5.88 3.56 12.35 4.83 16.81q0.79 2.59 0.97 5.29c0.11 2.68 0.2 2.9 1.47 1.43 0.47-0.55 1.39-1.65 2.11-2.52 2.06-2.45 8.47-8.94 11.3-11.68 1.75-1.68 4.21-3.89 4.95-4.55 1.26-1.11-0.1-0.9-1.91-1.53-0.82-0.28-1.44-0.96-1.86-2.25-0.75-2.36-1.51-5.37-2.01-6.98-0.25-0.79-0.31-0.88 0.25-1.25 0.57-0.38 12.93-10.61 16.52-13.15 3.59-2.55 9.72-6.92 10.76-7.58 1.04-0.66 1.01-0.73 1.97-0.07 0.96 0.66 4.25 3.02 5.95 4.44 0.96 0.86 1.42 2.14 1.25 3.42-0.22 1.48-0.39 2.41 1.12 1.46 0.86-0.55 11.84-6.77 19.39-10.07 3.16-1.39 5.13-2.23 6.12-2.67 1.58-0.67 0.64-1.18-0.14-1.37m-53.75-7.11c-0.97 0.66-1.12 0.76-3.41 2.37-2.66 1.88-4.22 3.16-6.85 5.09-1.58 1.18-4.34 3.65-4.85 3.99-0.66 0.46-0.66 0.46-0.95-0.61-0.39-1.47-3.02-10.65-3.94-13.66-0.93-3-2.3-7.4-2.83-8.87-1.14-3.11-0.6-3.55 0.84-2.55 0.92 0.62 3.5 2.55 5.1 3.31 1.6 0.75 11.19 6.97 13.17 8.2q1.71 1.09 3.55 1.97c0.72 0.37 0.72 0.37 0.15 0.75"/>
					</g>
					<g id="g120">
						<path id="path122" class="s0" d="m455 160.14c-1.31-0.85-1.29-1.25 0.68-1.97 1.95-0.73 4.12-1.11 5.88-3.3 1.76-2.2 45.39-57 46.7-58.81 1.32-1.81 1.3-4.21 1.06-5.6-0.24-1.38 0.14-1.72 1.34-1 1.19 0.71 6.93 4.97 12.15 9.13 5.22 4.17 11.05 9.05 12.23 10.39 1.19 1.34 0.91 1.39-0.33 1.39-1.25 0-2.77-0.1-4.34 1.34-1.58 1.44-31.28 35.35-34.2 38.42-1.22 1.28-9.26 11.71-11.45 14.9-1.53 2.26-5.69 5.88-5.64 11.93 0.03 2.76-0.47 2.36-1.88 1.23-0.68-0.56-6.06-5.28-11.29-9.54-5.53-4.49-10.93-8.51-10.93-8.51"/>
					</g>
					<g id="g124">
						<path id="path126" class="s0" d="m588.33 264.46c5.56-1.69 9.17-2.96 10.73-3.41 2.66-0.79 2.96-1.49 3.55 1 0.4 1.66 4.5 11 6.61 36.66 2.11 25.65 0.2 40.68 0.2 42.16 0 1.48-0.1 1.68-1.38 1.68h-25.16c-1.68 0-1.68 0-1.68-1.58 0-1.58 0.49-24.57-1.18-41.25-1.68-16.67-5.21-28.65-5.71-29.74-0.49-1.08-0.09-1.18 0.7-1.38 0.79-0.19 7.65-2.41 13.32-4.14z"/>
					</g>
					<g id="g128">
						<path id="path130" class="s0" d="m361.08 541.72c13.13-1.51 26.08-4.27 38.68-8.24 1.07-0.33 1.26-0.72 1.33 0.5 0.07 1.22 4.23 22.36 4.56 24.87 0.34 2.5-0.11 3.08-1.57 2.01-1.47-1.07-4.64-2.25-8.05-1.81-3.41 0.44-15.59 2.57-16.73 2.71-1.14 0.15-0.88 0.21-0.81 1.56 0.07 1.35 7.11 55.15 7.56 58.49 0.45 3.34 1.66 4.04 2.81 4.92 1.8 1.37 2.53 1.65-0.23 2.14-2.01 0.36-9.14 1.69-15.63 2.49-6.85 0.84-13.58 1.29-14.6 1.32-1.97 0.06-2.03 0-0.58-1.7 1.45-1.7 2.57-3.25 2.43-5.96-0.14-2.7-7-56.49-7.14-58.41-0.14-1.93 0.05-1.42-1.78-1.32-1.83 0.09-15.17 1.26-16.81 1.4-1.65 0.16-4.59 2-5.92 3.31-1.34 1.3-1.53-0.79-1.94-3-0.48-2.53-2.51-20.81-2.71-22.29-0.19-1.47-0.13-1.93 0.88-1.88 12.09 0.65 24.21 0.28 36.25-1.11z"/>
					</g>
					<g id="g132">
						<path id="path134" class="s0" d="m95.5 517.59c11.87 15.89 20.87 23.93 22.02 25.08 1.14 1.15 1.11 0.86 2.26 0 1.07-0.79 16.37-15.25 17.27-16.29 1.08-1.23 1.32-1.45-0.31-1.42-1.48 0.03-3.09 0.14-4.06-0.84-1.95-1.97-4.34-3.77-10.44-10.46-6.64-7.27-8.21-9.19-9.35-10.71-0.51-0.69-0.43-1.07 0.58-1.79 1.33-0.96 48.04-32.67 49.83-33.69 1.79-1.02 4.53-0.83 5.61-0.89 1.08-0.07 0.64-0.83 0-1.54-0.64-0.7-10.96-14.1-16.47-23.56-0.64-1.1-0.89-1.02-1.4 0-0.51 1.02-0.82 3.66-3.12 5-2.29 1.33-60.86 40.39-63.42 42.06-2.57 1.68-5.49 1.09-6.89 0.96-1.41-0.12-1.47 0.32-0.9 1.28 0.58 0.95 6.93 10.94 18.79 26.84"/>
					</g>
					<g id="g136">
						<path id="path138" class="s0" d="m118.19 375.7c2.86-0.65 5.25-3.42 6-4.83 0.75-1.4 1.4-1.22 1.97 1.08 0.57 2.3 4.44 18.74 8.44 29.63 5.86 15.93 11.16 25.73 11.62 26.34 0.47 0.61-0.37 1.13-1.18 1.45-0.81 0.33-16.64 7.98-19.05 9.08-1.02 0.46-1.19 0.36-0.7-0.73 0.4-0.91 0.49-3.37-0.25-5.13-3.55-8.29-12.59-29.38-12.95-30.15-0.44-0.94-0.19-0.88-1.19-0.5-0.99 0.37-9.86 3.04-10.75 3.31-0.72 0.22-0.54 0.36-0.31 1.18 0.49 1.74 4.76 14.28 5.41 16.02 0.81 2.17 1.68 3.16 2.71 3.61 1.25 0.53 1.29 0.69-0.23 1.19-1.21 0.39-19.05 6.57-19.95 6.87-1.89 0.66-2.37 0.85-1.48-0.94 0.47-0.94 0.36-2.67 0.15-3.21-0.5-1.25-6.11-16.41-6.48-17.72-0.38-1.31-0.13-1-1.63-0.56-1.5 0.43-8.68 2.23-9.92 2.6-1.24 0.38-1 0.31-0.56 1.88 1.82 6.46 11.11 29.52 12.67 33.58 1.56 4.06 4 5.5 5.5 6 1.5 0.5 1.18 1.31-1.56 2.31-3.77 1.38-16.68 7.54-18.74 8.23-2.07 0.69-2 0.56-2.76-0.87-0.77-1.44-5.5-10.74-12.84-29.65-7.23-18.64-10.95-37.64-11.39-39.64-0.44-2-0.26-2.56 0.87-1.93 1.12 0.62 2.28 2.18 5.78 1.36 3.5-0.81 72.78-19.87 72.78-19.87"/>
					</g>
					<g id="g140">
						<path id="path142" class="s0" d="m90.16 270.8c1.62 0.39 2.17 0.06 1.71 1.84q-3.24 13.57-4.68 27.45c-1.98 18.99-0.93 36.51-0.99 38.15-0.07 1.71-0.33 1.71-2.1 1.71-1.78 0-22.22 1.34-24.2 1.35-1.97 0.01-1.9 0.2-1.89-1.25 0.01-1.45-1.61-20.13 0.56-42.41 2.17-22.28 5.31-30.13 5.66-31.33 0.34-1.2 0.44-1.3 1.83-0.86 1.4 0.44 21.32 4.66 24.1 5.35z"/>
					</g>
					<g id="g144">
						<path id="path146" class="s0" d="m374.43 34.33c-3.12-0.43-4.71-0.6-6.09-0.79-10.8-1.32-19.02-1.67-22.18-1.8-4.12-0.18-4.14-0.42-1.97 1.97 1.48 1.61 1.84 4.45 1.57 8.38-0.26 3.93-5.67 71.9-5.82 73.6-0.14 1.71-2.01 3.7-2.76 4.68-0.76 0.97-0.53 1.54 1 1.5 1.53-0.05 23.75 1.66 25.41 1.91 2.33 0.35 1.83-0.17 0.61-2.69-0.85-1.74-1.03-2.65-0.54-6.11 0.48-3.46 6.2-62.59 6.91-68.36 0.27-2.13 0.49-3.78 0.76-5.13 0.74-2.36 1.64-4.46 3.55-5.64 1.18-0.74 1.58-1.23-0.45-1.52z"/>
					</g>
					<g id="g148">
						<path id="path150" class="s0" d="m488.17 74.15c-1.4-0.86-1.97-1.15-4.77-2.76-1.72-0.98-6.64-3.87-13.35-7.3-4.27-2.18-9.04-4.34-14.92-7.1-11.33-5.31-25.43-9.96-32.37-12.19-3.15-1.11-5.41-1.58-6.18-1.83-3.16-0.99-2.8-0.36-2.03 1.07 0.77 1.43 1.06 4.31 0 7.11l-0.24 0.76c0 0-22.29 66.81-23.29 69.58-1.01 2.77-1.68 4.27-3.95 5.27-2.06 0.91-2.37 0.94-0.42 1.45 2.48 0.63 7.99 2.24 12.05 3.59 4.05 1.33 10.16 3.4 12.34 4.27 1.87 0.74 2.68 1.49 2.08-0.4-0.79-2.24-0.86-4.67-0.22-6.96 0.79-2.71 7.11-19.67 7.44-20.49 0.35-0.81 0.43-1.15 0.72-1.77 0.35-0.73 0.23-0.7 0.9-0.35 0.67 0.35 10.17 4.74 14.95 7.19 3.8 1.95 3.98 2.12 5.53 2.92 3.21 1.69 1.7 6.78 3.92 1.94 0.93-2.04 3.37-7.76 5.81-12.49 2.44-4.74 3.59-7.26 4.25-8.65 0.97-2.04 0.4-1.82-1.15-1.38-2.56 0.73-3.43 0.25-7.47-1.72-3.91-1.92-16.45-7.68-17.41-8.07-0.96-0.38-0.83-0.5-0.58-1.08 0.26-0.57 3.95-10.26 4.35-11.38 0.49-1.5 0.66-1.34 1.55-1.04 1.09 0.37 9.52 3.69 16.9 7.38 4.67 2.33 12.66 6.45 15.79 8.35 3.38 2.07 6.98 3.85 7.36 5.28 0.63 2.36 0.39 4.01 2.44 0.55 0.85-1.45 5.13-9.14 7.23-13.09 2.1-3.96 2.78-5.03 3.18-5.98 0.16-0.4 0.16-0.4-0.4-0.72"/>
					</g>
					<g id="g152">
						<path id="path154" class="s0" d="m238.39 521.2c-1.26-0.54-16.99-8.77-26.47-15.66-10.29-7.5-20.99-17.09-21.2-17.28-1.74-1.62-2.09-1.16-1.57 0.98 0.55 2.25-0.86 4.89-2.77 7.25l-0.48 0.66c-5.04 6.66-15.29 18.5-21.41 26.29-8.55 10.89-23.06 28.81-24.95 30.9-1.9 2.09-2.82 1.75-5.21 1.94-2.38 0.2-1.89 0.88-0.29 2.19q11.07 9.97 23.27 18.5c4.47 3.1 12.96 8.91 19.21 12.73 9.82 5.99 17.95 10.2 18.7 10.58 1.27 0.63 1.61 0.63 1.85 0.15 0.24-0.49 0.49-1.27 1.41-2.97 0.92-1.7 7.39-14.5 8.61-16.15 1.21-1.65 0.71-2.05-0.46-1.97-1.17 0.08-3.25 0.5-4.34-0.04-1.09-0.53-2.68-0.76-11.67-5.62q-10.22-5.65-19.67-12.51c-0.87-0.73-0.82-0.83-0.14-1.71 0.67-0.87 6.17-7.89 6.99-8.99 0.83-1.09 0.93-1.18 1.66-0.63 0.39 0.28 2.88 2.16 5.92 4.11 2.76 1.77 6.01 3.59 7.26 4.3 2.62 1.51 4.93 2.44 5.53 4.47 0.78 2.64 0.78 2.64 1.89 0.88 0.81-1.31 9.62-16.43 11.12-18.69 1.68-2.52 0.74-1.68-0.98-1.58-1.28 0.07-3.15-0.09-5.57-1.5-1.16-0.67-4.24-2.34-6.84-3.98-2.86-1.81-5.22-3.55-5.7-3.89-0.93-0.64-1.19-0.58-0.15-1.51 1.04-0.92 6.58-8.2 7.26-8.93 0.68-0.72 0.79-0.73 1.55-0.25 0.38 0.23 6.83 4.93 13.46 8.9 4.93 2.95 7.6 4.42 10.39 6.01 2.44 1.4 2.61 2.03 3.07 3.34 0.94 2.68 1.19 2.76 3.22-1.15 0.57-1.09 8.69-16.74 9.23-17.36 0.54-0.63 0.42-0.88-1.74-1.8"/>
					</g>
					<g id="g156">
						<path id="path158" class="s0" d="m524.88 565.11c-1.47-0.09-3.06 0.34-5.17-0.95-1.61-0.99-4.3-2.99-9.56-7.21-5.26-4.21-12.35-10.26-12.35-10.26 0 0 3.16-4.78 3.16-9.19 0-5.55-0.59-13.42-5.92-20.96-4.91-6.94-13.46-12.19-18.39-13.84-2.49-0.83-6.86-1.72-10.48-0.74q-4.89 1.41-9.47 3.67c-2.51 1.26-5.55 3.09-7.89 4.5-12.53 7.55-22 12.44-32.64 17.11-0.4 0.18-3.16 1.36-3.59 1.51-2.27 0.79-1.83 1.19-0.26 1.62 1.56 0.44 3.35 1.69 4.65 4.34 6.14 12.12 31.7 65.99 32.73 68.5 1.15 2.8 1.11 4.1 0.26 6.1-0.78 1.85-0.2 1.52 1.59 0.71 0.74-0.33 7.76-3.15 13.72-6.03 4.3-2.08 9.58-5.08 10.7-5.64 2.68-1.34 2.34-1.52 0.08-1.94-1.28-0.24-2.19-1.1-2.83-2.37-0.64-1.28-1.42-2.81-5.03-9.77-2.85-5.53-3.59-7.38-3.94-7.94-0.13-0.19-0.14-0.22 0.08-0.36 0.53-0.31 1.51-0.84 3.08-1.7 6.88-3.78 10.93-6.17 14.67-8.98 0.98-0.74 0.92-0.74 1.78-0.07 0.51 0.39 14.58 13.28 15 13.63 1.76 1.5 4.62 4.13 7.11 2.42 4.38-3.04 15.05-11.17 17.85-13.45 3.42-2.76 2.52-2.63 1.1-2.72m-52.15-20.41c-4.85 3.06-17.93 10.2-18.82 10.72-0.89 0.51-0.89 0.39-1.4-0.56 0 0-7.79-16.18-8.23-17.05-0.45-0.88-0.64-0.96 0-1.22 0.64-0.25 11.48-6.12 16.58-8.74 5.09-2.61 12.05-1.31 14.35 2.77 2.68 4.73 2.37 11.05-2.49 14.1"/>
					</g>
					<g id="g160">
						<path id="path162" class="s0" d="m570.77 515.99c-1.57 0.23-4.88-0.1-7.02-2.15l-0.6-0.53c-11.7-10.04-51.13-44.16-55.94-48.15-1.58-1.67-2.48-3.88-2.51-6.19-0.04-1.61-0.83-1.51-2.26 0.47-0.26 0.36-6.25 7.71-9.11 11.11-2.79 3.32-8.77 9.68-9.35 10.26-1.65 1.73-1.61 2.15 0 2.03 2.25-0.08 4.47 0.51 6.37 1.69 7.34 6.5 48.2 42.23 55.8 48.94l0.22 0.2c2.24 1.95 3.06 5.56 3.06 7.18-0.01 1.61 0.67 1.76 2.27-0.03l0.02-0.02q0.17-0.16 0.36-0.35c0.24-0.24 0.86-1 2.27-2.64 0.5-0.55 9.51-10.41 12.26-14.25 1.33-1.86 3.95-4.68 4.48-5.32 1.53-1.84 1.29-2.49-0.3-2.25"/>
					</g>
					<g id="g164">
						<path id="path166" class="s1" d="m333.56 665.14c-183.6-0.11-332.34-149.03-332.23-332.63 0.08-133.45 79.96-253.91 202.86-305.93 169.32-70.97 364.12 8.76 435.09 178.07 70.69 168.65-8.1 362.74-176.36 434.37-40.93 17.32-84.93 26.2-129.36 26.12zm0-648.89c-174.56 0-316.54 142-316.54 316.53 0 174.54 142 316.56 316.56 316.56 174.55 0 316.53-142.01 316.53-316.56 0-174.54-142-316.53-316.53-316.53"/>
					</g>
					<g id="g168">
					</g>
					<g id="g172">
					</g>
					<g id="g176">
					</g>
					<g id="g180">
						<path id="path182" class="s0" d="m299.17 611.68c-0.94-3.03-3.99-13.1-4.34-14.44-0.35-1.33-0.61-2.36-1.52-1-1.65 2.48-2.61 4.28-8.01 7.07-9.42 4.87-18.77 1.88-23.86-1.04-9.08-5.2-13.21-16.72-10.77-26.79 2.81-9.97 12.07-17.99 22.53-18.08 5.86-0.04 15.42 1.85 21.24 10.7 3.34 5.09 3.34 7.22 3.57 10.19 0.13 1.62 0.87 0.87 1.82-0.13 0.96-0.99 8.55-8.29 10.86-10.46 2.31-2.17 6.76-6.22 7.79-6.9 1.04-0.68 1.4-1.31 0.59-2.16-0.51-0.55-3.05-1.28-4.96-3.68-2.77-3.49-3.55-4.64-7.32-8.44-5.85-5.92-17.28-12.92-33.15-12.78-20.78 0.17-34.34 12.29-41.05 23.88h-0.21c-4.16 7.48-6.37 15.9-6.4 24.47l0.18 0.09c0.18 13.4 6.05 30.61 24.08 40.96 13.77 7.89 27.17 7.39 35.17 5.11 5.13-1.47 6.38-2.09 10.51-3.77 2.85-1.15 5.41-0.54 6.13-0.77 1.12-0.35 1.12-1.08 0.55-2.17-0.57-1.1-2.46-6.81-3.41-9.84"/>
					</g>
					<g id="g184">
						<path id="path186" class="s0" d="m603.47 407.07c-3.12 0.52-13.52 2.19-14.89 2.36-1.36 0.18-2.41 0.3-1.18 1.38 2.22 1.97 3.89 3.15 5.92 8.89 3.55 9.99-0.66 18.84-4.24 23.49-6.38 8.29-18.36 10.84-28.02 7.07-9.51-4.13-16.19-14.38-14.88-24.76 0.74-5.82 3.9-15.02 13.46-19.6 5.49-2.63 7.6-2.37 10.58-2.17 1.62 0.09 0.97-0.74 0.11-1.82-0.86-1.08-7.05-9.59-8.9-12.17-1.84-2.59-5.25-7.54-5.78-8.65-0.53-1.12-1.11-1.58-2.07-0.88-0.61 0.44-1.68 2.85-4.32 4.43-3.82 2.28-5.07 2.9-9.34 6.11-6.64 5-15.13 15.39-17.14 31.13-2.62 20.62 7.57 35.69 18.16 43.91l-0.04 0.2c6.86 5.14 14.9 8.46 23.38 9.65l0.12-0.17c13.3 1.62 31.14-1.87 43.81-18.34 9.68-12.59 10.99-25.93 9.8-34.16-0.76-5.28-1.21-6.61-2.31-10.92-0.76-2.98 0.19-5.44 0.06-6.18-0.2-1.17-0.92-1.26-2.08-0.84-1.17 0.42-7.08 1.52-10.21 2.06"/>
					</g>
					<g id="g188">
						<path id="path190" class="s0" d="m318.47 97.36c-2.22-2.27-9.53-9.84-10.44-10.87-0.91-1.03-1.62-1.82-1.81-0.2-0.35 2.96-0.37 5-3.91 9.94-6.16 8.63-15.84 10.24-21.71 9.96-10.45-0.49-19.38-8.86-21.81-18.94-2.04-10.16 2.54-21.51 11.81-26.36 5.2-2.72 14.56-5.39 23.78-0.17 5.29 3 6.27 4.9 7.82 7.43 0.86 1.39 1.19 0.38 1.56-0.94 0.38-1.32 3.84-11.27 4.89-14.26 1.07-3 3.16-8.62 3.79-9.7 0.64-1.07 0.65-1.8-0.46-2.2-0.71-0.25-3.29 0.26-6.09-1-4.06-1.83-5.29-2.51-10.36-4.17-7.89-2.59-21.27-3.62-35.34 3.74-18.42 9.64-24.95 26.61-25.66 39.99l-0.18 0.09c-0.2 4.26 0.2 8.53 1.18 12.69 0.86 4.18 2.3 8.22 4.27 12.02h0.21c6.27 11.83 19.34 24.46 40.11 25.46 15.85 0.74 27.55-5.82 33.62-11.5 3.9-3.64 4.74-4.77 7.64-8.14 2.01-2.33 4.57-2.95 5.11-3.48 0.83-0.83 0.5-1.48-0.51-2.19-1-0.71-5.29-4.94-7.52-7.2"/>
					</g>
					<g id="g192">
						<path id="path194" class="s0" d="m549.59 233.25c1.29-2.9 5.66-12.47 6.28-13.7 0.63-1.23 1.09-2.18-0.48-1.76-2.87 0.76-4.78 1.49-10.69 0-10.26-2.56-15.33-10.98-17.22-16.53-3.38-9.91 1.13-21.29 9.6-27.24 8.69-5.63 20.92-5.52 28.86 1.31 4.43 3.84 10.35 11.57 8.88 22.06-0.85 6.03-2.25 7.63-4.04 10.01-0.98 1.3 0.08 1.22 1.45 1.1 1.37-0.12 11.89-0.57 15.06-0.68 3.17-0.1 9.19-0.21 10.41-0.03 1.22 0.17 1.91-0.07 1.87-1.24-0.02-0.76-1.45-2.97-1.3-6.04 0.22-4.45 0.4-5.84 0.08-11.17-0.49-8.29-4.45-21.11-16.45-31.5-15.73-13.6-33.91-13.44-46.62-9.18l-0.15-0.15c-8.06 2.88-15.28 7.74-20.97 14.14l0.09 0.19c-8.72 10.18-15.68 26.99-8.97 46.66 5.14 15.02 15.52 23.5 23.03 27.06 4.82 2.29 6.18 2.65 10.38 4.12 2.9 1.01 4.43 3.16 5.13 3.47 1.08 0.48 1.55-0.08 1.85-1.27 0.3-1.2 2.65-6.74 3.94-9.64"/>
					</g>
				</g>
			</g>
		</g>
	</g>
</svg>