<?xml version="1.0" encoding="UTF-8" standalone="no"?>
<svg
   xmlns:dc="http://purl.org/dc/elements/1.1/"
   xmlns:cc="http://creativecommons.org/ns#"
   xmlns:rdf="http://www.w3.org/1999/02/22-rdf-syntax-ns#"
   xmlns:svg="http://www.w3.org/2000/svg"
   xmlns="http://www.w3.org/2000/svg"
   viewBox="0 0 666.66669 666.66669"
   height="666.66669"
   width="666.66669"
   xml:space="preserve"
   id="svg2"
   version="1.1"><metadata
     id="metadata8"><rdf:RDF><cc:Work
         rdf:about=""><dc:format>image/svg+xml</dc:format><dc:type
           rdf:resource="http://purl.org/dc/dcmitype/StillImage" /></cc:Work></rdf:RDF></metadata><defs
     id="defs6"><clipPath
       id="clipPath18"
       clipPathUnits="userSpaceOnUse"><path
         id="path16"
         d="M 0,500 H 500 V 0 H 0 Z" /></clipPath></defs><g
     transform="matrix(1.3333333,0,0,-1.3333333,0,666.66667)"
     id="g10"><g
       id="g12"><g
         clip-path="url(#clipPath18)"
         id="g14"><g
           transform="translate(252.2236,493.54)"
           id="g20"><path
             id="path22"
             style="fill:#ffffff;fill-opacity:1;fill-rule:nonzero;stroke:none"
             d="m 0,0 c 133.553,0 241.815,-108.267 241.815,-241.816 0,-133.552 -108.262,-241.815 -241.815,-241.815 -133.55,0 -241.814,108.263 -241.814,241.815 C -241.814,-108.267 -133.55,0 0,0" /></g><g
           transform="translate(394.0312,250.5757)"
           id="g24"><path
             id="path26"
             style="fill:#ffffff;fill-opacity:1;fill-rule:nonzero;stroke:none"
             d="m 0,0 c 0,-78.398 -63.555,-141.952 -141.952,-141.952 -78.4,0 -141.954,63.554 -141.954,141.952 0,78.401 63.554,141.956 141.954,141.956 C -63.555,141.956 0,78.385 0,0" /></g><g
           transform="translate(161.6841,196.415)"
           id="g28"><path
             id="path30"
             style="fill:#100f0d;fill-opacity:1;fill-rule:nonzero;stroke:none"
             d="M 0,0 C 1.282,-1.925 2.528,-3.949 3.593,-5.459 4.659,-6.969 5.37,-7.644 3.525,-7.827 1.681,-8.011 0.187,-8.182 -1.072,-8.146 c -1.258,0.035 -1.669,1.231 -2.738,2.595 -1.147,1.53 -2.214,3.117 -3.197,4.757 -0.775,1.279 -2.421,3.257 -0.574,3.126 1.847,-0.13 4.523,0.317 5.843,-0.165 C -1.344,2.021 -0.42,0.618 0,-0.009" /></g><g
           transform="translate(161.8437,278.6382)"
           id="g32"><path
             id="path34"
             style="fill:#100f0d;fill-opacity:1;fill-rule:nonzero;stroke:none"
             d="m 0,0 c 0.181,0.592 0.548,1.415 0.548,1.415 0,0 -1.623,0.861 -3.005,1.48 -2.368,1.036 -7.972,4.263 -10.043,5.595 -0.75,0.479 -3.405,1.628 -3.405,1.628 0,0 1.972,0.459 3.257,0.695 1.998,0.37 6.808,1.11 9.324,1.48 1.515,0.222 3.04,0.477 3.04,0.477 l -0.888,1.965 c -1.11,2.443 -3.108,7.697 -4.219,9.991 -0.556,1.146 -1.512,3.448 -1.512,3.448 0,0 1.661,-0.822 2.696,-1.376 2.073,-1.11 8.659,-5.328 10.805,-6.512 1.072,-0.592 2.3,-1.362 2.3,-1.362 0,0 0.796,1.551 1.258,2.664 0.494,1.158 1.063,2.283 1.702,3.369 0,0 -1.311,0.509 -1.776,0.731 -1.258,0.592 -17.243,8.658 -19.537,9.769 -1.524,0.736 -2.462,2.622 -2.462,2.622 0,0 -1.087,-1.755 -1.386,-2.179 -0.888,-1.258 -1.554,-2.59 -2.22,-3.552 -0.104,-0.183 -0.177,-0.385 -0.213,-0.592 0,0 0.873,-1.527 2.211,-3.848 1.702,-2.96 5.328,-8.806 6.143,-10.286 0.177,-0.317 0.278,-0.669 0.296,-1.031 0,0 -1.247,-0.275 -3.553,-0.591 -3.7,-0.519 -8.436,-1.628 -10.73,-2.073 -1.149,-0.222 -2.931,-0.657 -2.931,-0.657 0,0 -0.364,-0.935 -0.843,-2.072 -0.558,-1.258 -0.956,-2.581 -1.184,-3.94 -0.086,-0.518 -0.376,-1.906 -0.376,-1.906 0,0 1.006,0.556 1.361,0.722 0.794,0.373 1.54,0.512 3.893,-0.204 3.404,-1.036 10.064,-4.884 13.912,-6.882 3.849,-1.999 5.53,-2.978 5.53,-2.978 L 0,0" /></g><g
           transform="translate(255.0879,372.0273)"
           id="g36"><path
             id="path38"
             style="fill:#100f0d;fill-opacity:1;fill-rule:nonzero;stroke:none"
             d="m 0,0 c 2.335,0.154 9.279,-0.311 12.21,-0.518 3.108,-0.222 11.545,-1.11 13.765,-1.776 1.11,-0.335 2.238,-0.566 2.238,-0.566 0,0 -0.092,-0.692 -0.24,-1.358 -0.296,-1.332 -0.834,-3.1 -1.057,-4.062 -0.175,-0.654 -0.414,-1.29 -0.713,-1.9 0,0 -0.717,1.406 -2.072,1.826 -1.356,0.42 -2.072,0.64 -4.648,0.986 -1.667,0.225 -4.925,0.542 -4.925,0.542 0,0 0.1,-3.703 0.02,-6.4 -0.098,-3.218 -0.266,-8.499 -0.443,-12.084 -0.092,-1.82 -0.249,-4.608 -0.249,-4.608 0,0 -1.883,0.251 -3.419,0.37 -1.409,0.11 -3.17,0.174 -3.17,0.174 0,0 0.325,4.805 0.547,7.993 0.222,3.188 0.518,7.178 0.518,10.064 0,2.886 0.08,4.843 0.08,4.843 -1.622,0.192 -3.256,0.293 -4.89,0.296 -2.443,-0.021 -2.602,0.127 -4.441,-0.465 -0.979,-0.316 -2.276,-0.77 -2.276,-0.77 0,0 -0.159,1.522 -0.159,2.25 v 3.905 c 0,0.399 -0.086,1.154 -0.086,1.154 0,0 2.96,0.071 3.416,0.104" /></g><g
           transform="translate(285.1387,353.0171)"
           id="g40"><path
             id="path42"
             style="fill:#100f0d;fill-opacity:1;fill-rule:nonzero;stroke:none"
             d="m 0,0 c 1.294,0.776 1.48,0.699 3.103,1.619 0.322,0.181 0.657,0.34 1,0.483 0,0 0.971,-0.427 2.108,-0.852 1.775,-0.667 3.33,-1.703 5.254,-2.517 1.562,-0.663 4.185,-1.841 4.185,-1.841 0,0 -0.778,-0.444 -1.077,-0.675 -1.776,-1.362 -2.368,-1.634 -3.7,-2.516 -0.311,-0.204 -0.847,-0.548 -0.847,-0.548 0,0 -1.4,0.572 -2.187,0.918 C 6.447,-5.311 5.092,-4.618 3.774,-3.857 2.072,-2.895 1.036,-2.673 0,-1.971 -0.518,-1.625 -1.838,-1 -1.838,-1 c 0,0 1.184,0.592 1.838,0.991" /></g><g
           transform="translate(315.3262,347.5322)"
           id="g44"><path
             id="path46"
             style="fill:#100f0d;fill-opacity:1;fill-rule:nonzero;stroke:none"
             d="m 0,0 c 0.938,1.664 4.958,3.996 8.141,3.626 3.181,-0.37 5.09,-1.086 7.4,-3.745 1.184,-1.361 3.916,-7.755 3.916,-7.755 0,0 -1.243,-1.054 -1.776,-1.376 -1.889,-1.155 -4.162,-2.369 -4.162,-2.369 0,0 -0.871,5.166 -2.573,7.164 -1.702,1.998 -3.773,2.812 -5.475,1.924 -1.702,-0.888 -0.666,-3.848 1.702,-6.734 2.367,-2.886 5.843,-10.402 0.959,-15.508 -4.885,-5.107 -12.647,-4.077 -16.5,-0.19 -5.151,5.207 -3.671,7.871 -4.286,8.978 -0.592,1.045 -0.243,1.649 -0.243,1.649 l 6.835,2.578 c 0,0 -0.906,-2.649 -0.592,-3.552 0.55,-1.643 0.592,-2.868 1.856,-4.44 2.785,-3.479 7.128,-2.531 8.756,-0.592 0.612,0.725 1.332,1.814 0.633,4.6 -0.379,1.521 -2.803,3.037 -4.579,6.737 -1.777,3.7 -1.261,6.808 0,9.02" /></g><g
           transform="translate(343.915,194.7568)"
           id="g48"><path
             id="path50"
             style="fill:#100f0d;fill-opacity:1;fill-rule:nonzero;stroke:none"
             d="m 0,0 c 1.125,2.285 2.282,3.81 3.111,5.743 0.4,0.93 0.959,2.072 0.959,2.072 0,0 1.235,-1.498 1.794,-2.27 C 6.536,4.612 7.978,2.469 7.978,2.469 7.616,1.82 7.288,1.154 6.998,0.471 5.689,-2.584 3.786,-5.357 2.854,-7.246 2.469,-8.027 1.868,-9.295 1.868,-9.295 c -0.613,0.773 -1.267,1.516 -1.96,2.221 -0.615,0.615 -2.09,2.805 -2.09,2.805 0,0 1.927,3.754 2.182,4.272" /></g><g
           transform="translate(326.4268,189.1895)"
           id="g52"><path
             id="path54"
             style="fill:#100f0d;fill-opacity:1;fill-rule:nonzero;stroke:none"
             d="m 0,0 c 1.089,1.412 2.507,3.146 3.377,4.1 0.637,0.698 1.809,1.995 1.809,1.995 0,0 0.208,-2.046 0.278,-2.567 0.228,-1.687 0.172,-2.83 0.663,-6.343 0.557,-3.967 0.593,-5.228 1.09,-9.074 0.296,-2.211 0.758,-4.812 0.758,-4.812 0,0 1.103,-1.025 1.929,-1.777 2.202,-1.977 3.422,-2.779 4.145,-3.436 0.275,-0.249 2.397,-2.058 2.397,-2.058 0,0 -0.829,-0.838 -1.578,-1.633 -1.204,-1.282 -2.453,-2.665 -3.291,-3.374 -0.264,-0.238 -0.494,-0.507 -0.689,-0.8 0,0 -1.857,1.971 -2.919,2.96 -2.016,1.862 -4.866,4.65 -4.866,4.65 0,0 -0.496,0.118 -1.087,0.246 -1.389,0.296 -3.577,0.37 -5.856,0.503 -3.256,0.187 -6.713,0.592 -9.945,1.01 -1.593,0.159 -3.197,0.169 -4.79,0.029 0,0 0.687,0.737 1.021,1.048 1.08,0.992 1.421,1.35 2.511,2.265 l 2.409,2.024 c 1.063,-0.354 2.153,-0.636 3.256,-0.835 2.093,-0.382 4.49,-0.254 7.25,-0.432 1.817,-0.118 3.848,-0.091 3.848,-0.091 0,0 0,2.072 -0.095,2.927 -0.249,2.412 -0.429,5.183 -0.482,6.968 -0.078,2.214 -0.465,4.408 -1.155,6.513" /></g><g
           transform="translate(227.9907,130.5967)"
           id="g56"><path
             id="path58"
             style="fill:#100f0d;fill-opacity:1;fill-rule:nonzero;stroke:none"
             d="M 0,0 C 0.388,2.208 1.036,6.112 1.326,7.175 1.616,8.237 1.415,8.14 2.584,7.956 3.86,7.755 9.333,6.627 11.26,6.308 c 0.219,-0.047 0.441,-0.069 0.663,-0.06 0,0 0.296,1.718 0.45,2.626 0.205,1.166 0.373,2.3 0.373,2.3 -0.308,0.097 -0.624,0.172 -0.944,0.22 -0.98,0.094 -5.175,0.947 -6.924,1.212 -0.98,0.152 -2.267,0.427 -2.267,0.427 0,0 0.121,0.663 0.222,1.184 0.358,1.808 0.888,4.121 0.926,4.736 0.062,0.421 0.148,0.835 0.252,1.246 0,0 1.042,-0.156 2.001,-0.363 3.114,-0.682 6.429,-1.128 8.691,-1.626 1.205,-0.316 2.365,-0.781 3.457,-1.379 0,0 0.261,1.439 0.509,2.575 0.249,1.137 0.249,1.404 0.5,2.504 0.051,0.252 0.083,0.507 0.096,0.764 -1.004,0.249 -2.022,0.421 -3.053,0.518 -2.554,0.228 -8.679,1.56 -11.618,1.918 -2.108,0.258 -6.151,1.054 -6.151,1.054 0,0 0.785,-1.663 0.722,-2.051 C -1.054,22.745 -1.841,19.912 -3.413,12.734 -4.68,6.938 -5.375,3.061 -5.757,2.078 -5.959,1.441 -6.107,0.793 -6.205,0.133 c 0,0 0.959,-0.231 1.726,-0.373 1.445,-0.267 4.239,-0.859 4.239,-0.859 0,0 0.178,0.735 0.24,1.096" /></g><g
           transform="translate(180.2559,315.0479)"
           id="g60"><path
             id="path62"
             style="fill:#100f0d;fill-opacity:1;fill-rule:nonzero;stroke:none"
             d="m 0,0 c -1.838,1.374 -5.109,3.771 -5.938,4.526 -0.829,0.755 -0.847,0.527 -0.041,1.48 0.887,1.039 4.898,5.364 6.242,6.927 0.16,0.169 0.299,0.355 0.415,0.559 l -2.194,1.622 c -0.971,0.725 -1.933,1.403 -1.933,1.403 -0.254,-0.225 -0.494,-0.47 -0.713,-0.731 -0.622,-0.828 -3.688,-4.144 -4.887,-5.574 -0.672,-0.799 -1.625,-1.811 -1.625,-1.811 0,0 -0.551,0.414 -0.971,0.745 -1.48,1.161 -3.407,2.62 -3.902,3.038 -0.494,0.417 -0.95,0.888 -0.95,0.888 0,0 0.64,0.763 1.353,1.515 2.324,2.445 4.541,5.178 6.216,6.948 0.956,0.926 2.016,1.737 3.158,2.421 0,0 -1.184,0.906 -2.113,1.655 -0.93,0.749 -1.166,0.888 -2.051,1.613 -0.208,0.163 -0.426,0.308 -0.657,0.438 -0.773,-0.769 -1.487,-1.592 -2.14,-2.463 -1.596,-2.157 -6.161,-6.965 -8.091,-9.404 -1.382,-1.75 -4.319,-4.964 -4.319,-4.964 0,0 1.972,-0.08 2.298,-0.317 1.151,-0.831 3.35,-2.85 9.158,-7.596 4.689,-3.83 8.206,-6.55 8.91,-7.35 0.486,-0.476 1.006,-0.911 1.563,-1.302 0,0 0.734,0.743 1.282,1.356 1.033,1.157 2.859,3.629 2.859,3.629 0,0 -0.639,0.524 -0.941,0.749" /></g><g
           transform="translate(248.4746,344.6694)"
           id="g64"><path
             id="path66"
             style="fill:#100f0d;fill-opacity:1;fill-rule:nonzero;stroke:none"
             d="m 0,0 c -0.296,0.323 -5.92,6.216 -6.512,6.513 -0.592,0.296 -0.592,0.109 0.198,1.092 0.791,0.982 4.242,5.124 3.354,10.55 -0.888,5.426 -5.606,8.88 -12.728,7.992 -7.123,-0.888 -14.002,-3.221 -14.002,-3.221 l -2.738,-0.887 1.042,-1.318 c 0,0 5.823,-22.103 6.711,-24.569 0.296,-0.843 0.755,-2.96 0.755,-2.96 0,0 1.998,0.796 3.102,1.142 0.941,0.273 1.9,0.486 2.868,0.634 0,0 -0.524,1.844 -0.592,2.214 -0.296,1.48 -0.927,3.2 -1.234,4.523 -0.19,0.811 -0.225,1.039 -0.4,1.359 0,0 5.769,1.776 7.643,1.581 1.874,-0.196 2.96,-1.48 4.538,-3.357 0.787,-0.989 1.631,-1.933 2.528,-2.824 0.263,-0.267 0.944,-0.888 0.944,-0.888 0,0 2.188,0.216 2.922,0.358 1.012,0.16 2.013,0.376 3.001,0.642 0,0 -1.092,1.09 -1.403,1.421 m -8.922,15.6 c -0.047,-3.33 -2.593,-4.561 -6.364,-5.698 -3.185,-0.962 -4.357,-1.095 -5.846,-1.48 h -0.592 l -3.087,10.505 0.831,0.362 c 0,0 5.897,1.95 9.393,1.743 4.292,-0.252 5.728,-2.057 5.68,-5.417" /></g><g
           transform="translate(354.9902,315.3115)"
           id="g68"><path
             id="path70"
             style="fill:#100f0d;fill-opacity:1;fill-rule:nonzero;stroke:none"
             d="m 0,0 c -0.889,2.026 -9.573,12.728 -10.463,13.668 -0.441,0.469 -1.591,1.415 -1.591,1.415 0,0 -0.426,-1.406 -0.769,-1.701 -1.09,-0.946 -1.675,-1.481 -3.895,-3.701 -2.22,-2.22 -4.838,-4.59 -6.762,-6.267 -2.493,-2.173 -5.178,-4.375 -6.023,-4.939 l -3.772,-2.546 c 0,0 0.671,-0.925 0.863,-1.184 0.677,-0.89 1.041,-0.863 1.928,-2.445 0.379,-0.674 0.297,-0.358 1.038,-1.674 0.77,0.645 1.576,1.25 2.408,1.814 1.878,1.138 3.552,2.863 4.244,3.209 0.269,0.194 0.523,0.406 0.761,0.635 0.895,-1.044 1.695,-2.166 2.396,-3.348 1.283,-2.271 1.826,-2.566 3.996,-4.834 2.17,-2.269 5.229,-2.618 8.485,-2.072 3.256,0.543 5.18,1.97 6.861,5.032 1.677,3.059 1.182,6.906 0.295,8.926 m -7.105,-8.237 c -2.072,-0.838 -3.799,-0.689 -5.28,0.791 -1.48,1.48 -2.053,2.214 -3.417,4.19 -1.128,1.636 -2.405,3.772 -2.405,3.772 0.263,0.29 0.543,0.561 0.839,0.818 0.62,0.409 5.034,4.441 5.279,5.032 0.06,0.14 0.373,0.522 0.379,0.569 0.006,0.048 0,0.063 0,0 0.063,-0.244 0.206,-0.462 0.411,-0.617 0.69,-0.642 1.777,-2.322 3.453,-4.244 1.681,-1.925 2.71,-3.232 3.06,-5.476 0.349,-2.244 -0.245,-3.996 -2.319,-4.835" /></g><g
           transform="translate(369.1816,237.7881)"
           id="g72"><path
             id="path74"
             style="fill:#100f0d;fill-opacity:1;fill-rule:nonzero;stroke:none"
             d="m 0,0 c -2.367,0.297 -5.256,0.297 -9.835,0.889 -4.583,0.592 -8.74,1.034 -10.737,1.111 -0.66,0.024 -1.309,1.053 -1.309,1.053 0,0 -0.394,-2.386 -0.543,-3.275 -0.296,-1.774 -1.756,-8.805 -2.126,-12.653 -0.367,-3.849 -1.181,-11.322 10.952,-12.729 12.138,-1.406 14.582,5.699 15.024,8.141 0.444,2.442 1.46,11.248 1.756,13.911 0.148,1.324 0.592,4.738 0.592,4.738 0,0 -2.592,-1.328 -3.784,-1.186 m -3.456,-14.355 c -0.888,-2.738 -1.481,-6.586 -8.512,-5.92 -7.029,0.666 -7.696,4.292 -7.326,8.362 0.37,4.07 1.186,8.731 1.186,8.731 l 3.256,-0.444 c 2.218,-0.148 5.622,-0.516 9.175,-0.961 3.551,-0.443 3.921,-0.296 3.921,-0.296 0,0 -0.811,-6.734 -1.7,-9.472" /></g><g
           transform="translate(212.7847,138.6865)"
           id="g76"><path
             id="path78"
             style="fill:#100f0d;fill-opacity:1;fill-rule:nonzero;stroke:none"
             d="m 0,0 c 0.16,2.616 0,5.653 0.106,10.322 0.107,4.668 -0.097,9.324 0.465,10.153 0.562,0.829 1.939,1.291 1.939,1.291 0,0 -3.552,2.107 -5.307,3.14 -1.756,1.033 -4.233,2.236 -4.233,2.236 0.293,-0.599 0.387,-1.274 0.269,-1.928 -0.231,-0.962 -1.219,-1.605 -3.816,-3.422 -2.596,-1.817 -11.979,-8.919 -14.347,-10.138 -1.463,-0.74 -3.067,-1.164 -4.707,-1.234 l 7.226,-5.098 c 0,0 0.624,2.022 1.841,2.626 1.891,0.941 2.152,1.43 2.152,1.43 L -5.666,2.351 c 0,0 -0.246,-0.661 -0.278,-2.573 -0.018,-1.184 -1.211,-2.235 -1.211,-2.235 L 0.731,-5.858 C 0.731,-5.858 -0.157,-2.62 0,0 M -4.825,9.034 C -4.881,8.478 -4.899,7.921 -4.878,7.361 l -9.056,4.84 c 0,0 3.594,3.156 4.772,4.015 1.537,1.124 4.399,3.486 4.399,3.486 v -5.115 c 0,-2.398 0.041,-4.487 -0.05,-5.553" /></g><g
           transform="translate(198.8096,359.8193)"
           id="g80"><path
             id="path82"
             style="fill:#100f0d;fill-opacity:1;fill-rule:nonzero;stroke:none"
             d="m 0,0 c -9.013,0 -16.319,-7.065 -16.319,-15.783 0,-8.718 7.306,-15.783 16.319,-15.783 9.014,0 16.322,7.065 16.322,15.783 C 16.322,-7.065 9.014,0 0,0 m 0,-25.951 c -5.805,0 -10.511,4.553 -10.511,10.168 0,5.615 4.706,10.168 10.511,10.168 5.805,0 10.515,-4.553 10.515,-10.168 0,-5.615 -4.707,-10.168 -10.515,-10.168" /></g><g
           transform="translate(143.3931,274.3223)"
           id="g84"><path
             id="path86"
             style="fill:#100f0d;fill-opacity:1;fill-rule:nonzero;stroke:none"
             d="m 0,0 c -8.558,0 -15.496,-6.938 -15.496,-15.496 0,-8.558 6.938,-15.496 15.496,-15.496 8.559,0 15.497,6.938 15.497,15.496 C 15.497,-6.938 8.559,0 0,0 m 0,-25.161 c -5.342,0 -9.673,4.33 -9.673,9.674 0,5.342 4.331,9.674 9.673,9.674 5.343,0 9.674,-4.332 9.674,-9.674 C 9.672,-20.831 5.342,-25.158 0,-25.161" /></g><g
           transform="translate(149.8701,235.9971)"
           id="g88"><path
             id="path90"
             style="fill:#100f0d;fill-opacity:1;fill-rule:nonzero;stroke:none"
             d="m 0,0 c -0.743,-0.411 0.817,-0.669 1.095,-0.888 2.809,-2.136 4.197,-5.464 3.697,-9.312 -0.734,-5.624 -5.739,-9.638 -11.183,-8.931 -5.443,0.708 -9.259,5.856 -8.525,11.494 0.334,2.555 1.705,4.906 3.345,5.897 0.423,0.255 1.515,0.296 1.397,0.616 -0.095,0.251 -4.582,2.447 -6.237,3.202 -0.385,0.175 -0.533,0.296 -0.66,0.276 -0.127,-0.021 -0.121,-0.178 -0.201,-0.27 -2.124,-2.524 -3.476,-5.609 -3.896,-8.88 -1.199,-9.218 5.032,-17.628 13.934,-18.785 8.901,-1.157 17.085,5.373 18.269,14.588 0.711,5.464 -0.976,9.999 -4.484,13.521 C 6.462,2.617 6.459,2.747 6.344,2.766 6.25,2.771 6.157,2.75 6.074,2.709 L 0,0" /></g><g
           transform="translate(362.3516,300.6143)"
           id="g92"><path
             id="path94"
             style="fill:#100f0d;fill-opacity:1;fill-rule:nonzero;stroke:none"
             d="m 0,0 c 0,0 -0.546,-1.776 -2.77,-2.622 -2.993,-1.15 -17.921,-7.336 -19.912,-8.155 -1.99,-0.822 -3.401,-0.061 -3.401,-0.061 l 7.955,-18.076 4.481,1.887 c -1.291,2.085 -2.392,4.284 -3.282,6.569 -1.616,4.035 -2.211,5.624 -2.211,5.624 l 7.943,3.187 c 0,0 2.368,-5.923 2.831,-6.892 0.276,-0.527 0.438,-1.104 0.475,-1.692 l 4.739,2.1 c -0.371,0.561 -0.688,1.156 -0.949,1.776 -0.471,1.11 -2.622,6.719 -2.622,6.719 l 5.03,2.052 c 0,0 3.193,-7.744 3.799,-9.244 0.357,-0.861 0.626,-1.754 0.804,-2.665 L 7.458,-17.508 0,0" /></g><g
           transform="translate(372.4473,269.6982)"
           id="g96"><path
             id="path98"
             style="fill:#100f0d;fill-opacity:1;fill-rule:nonzero;stroke:none"
             d="m 0,0 c -0.768,-1.111 -2.008,-1.801 -3.354,-1.866 -3.127,-0.188 -18.86,-1.636 -20.955,-1.825 -1.181,-0.148 -2.36,0.269 -3.186,1.126 l 2.033,-22.306 4.736,0.468 c -0.582,2.713 -0.95,5.469 -1.101,8.244 -0.294,4.922 -0.377,6.859 -0.377,6.859 l 8.334,0.662 c 0,0 0.433,-7.233 0.595,-8.437 0.098,-0.662 0.077,-1.336 -0.06,-1.992 l 5.034,0.591 c -0.179,0.739 -0.297,1.491 -0.352,2.252 -0.112,1.361 -0.447,8.171 -0.447,8.171 l 5.294,0.455 c 0,0 0.668,-9.473 0.789,-11.314 0.078,-1.049 0.062,-2.101 -0.04,-3.147 l 4.82,0.548 L 0,0" /></g><g
           transform="translate(252.8672,152.9775)"
           id="g100"><path
             id="path102"
             style="fill:#100f0d;fill-opacity:1;fill-rule:nonzero;stroke:none"
             d="m 0,0 c 1.03,-0.722 1.661,-1.892 1.702,-3.149 0.112,-2.901 1.14,-17.512 1.277,-19.457 0.109,-1.104 -0.318,-2.191 -1.146,-2.927 l 21.642,1.959 -0.373,5.086 c 0,0 -0.78,-0.815 -5.557,-1.357 -4.671,-0.526 -9.177,-0.94 -9.177,-0.94 l -0.517,7.574 c 0,0 7.243,0.806 8.391,0.921 0.634,0.08 1.279,0.044 1.901,-0.098 l -0.426,5.121 C 17.06,-7.599 16.337,-7.782 15.604,-7.812 14.304,-7.886 7.463,-8.61 7.463,-8.61 l -0.246,4.676 c 0,0 9.395,0.977 11.142,1.048 1,0.047 2.004,0.012 2.998,-0.106 L 20.872,1.727 0,0" /></g><g
           transform="translate(304.918,167.7695)"
           id="g104"><path
             id="path106"
             style="fill:#100f0d;fill-opacity:1;fill-rule:nonzero;stroke:none"
             d="m 0,0 c 0.395,-0.601 0.737,-1.234 1.027,-1.892 0.433,-1.254 1.22,-2.723 1.528,-3.631 0.112,-0.341 0.533,-0.888 0.69,-1.966 0,0 -1.534,0.829 -2.771,0.491 -1.238,-0.337 -1.892,-0.521 -4.014,-1.539 -1.379,-0.66 -3.396,-1.803 -3.396,-1.803 0,0 1.611,-2.995 2.884,-5.271 1.516,-2.718 3.676,-7.449 5.311,-10.512 0.831,-1.554 2.09,-3.946 2.09,-3.946 0,0 -1.552,-0.745 -2.781,-1.427 -1.124,-0.621 -2.492,-1.462 -2.492,-1.462 0,0 -2.128,4.145 -3.531,6.897 -1.403,2.753 -2.833,6.483 -4.257,8.88 -1.424,2.398 -2.601,4.378 -2.601,4.378 0,0 -5.921,-3.187 -7.04,-4.611 -0.592,-0.758 -1.347,-1.776 -1.347,-1.776 0,0 -0.888,1.183 -1.235,1.776 l -1.938,3.256 c -0.198,0.335 -0.888,1.53 -0.888,1.53 L 0,0" /></g><g
           transform="translate(159.0347,168.5215)"
           id="g108"><path
             id="path110"
             style="fill:#100f0d;fill-opacity:1;fill-rule:nonzero;stroke:none"
             d="m 0,0 c 1.235,0.657 2.428,1.395 3.573,2.199 0.923,0.66 1.799,1.383 2.619,2.164 0,0 1.273,-1.88 3.156,-4.52 2.336,-3.277 5.672,-6.983 8.131,-7.198 1.528,-0.134 3.553,0.354 3.428,3.503 -0.038,1.076 -1.22,2.307 -2.157,4.127 -0.809,1.575 -1.576,2.892 -2.416,4.671 -1.036,2.205 -1.699,4.011 -1.776,5.983 -0.124,3.481 3.256,6.663 8.403,5.239 5.148,-1.424 9.73,-6.13 12.75,-10.117 1.24,-1.641 1.968,-2.072 1.968,-2.072 0,0 -1.705,-1.22 -3.312,-2.541 -1.462,-1.205 -2.868,-2.199 -2.868,-2.199 0,0 0.088,1.752 -1.265,4.198 -2.113,3.827 -4.907,6.674 -7.045,6.861 -1.326,0.119 -1.858,-0.808 -1.829,-1.622 0.03,-0.814 1.225,-2.315 2.599,-4.28 0.927,-1.388 1.764,-2.836 2.504,-4.334 0.889,-1.726 1.522,-3.297 1.59,-5.198 0.225,-6.37 -5.032,-10.044 -12.178,-8.063 C 12.098,-12.151 5.66,-5.239 4.263,-3.336 3.178,-1.85 1.702,-0.695 0,0" /></g><g
           transform="translate(103.979,337.3047)"
           id="g112"><path
             id="path114"
             style="fill:#000000;fill-opacity:1;fill-rule:nonzero;stroke:none"
             d="m 0,0 c -5.828,3.159 -8.196,4.366 -8.196,4.366 1.175,0.779 2.182,1.785 2.96,2.961 1.243,1.915 5.837,9.569 9.472,16.653 3.635,7.083 2.679,12.252 -0.767,18.758 -3.445,6.507 -11.742,12.137 -20.481,13.401 -7.021,1.012 -10.337,-0.382 -14.836,-4.307 -4.499,-3.925 -9.952,-12.154 -15.313,-20.674 -4.032,-6.53 -7.669,-13.297 -10.89,-20.262 -2.173,-4.766 -0.61,-2.234 3.171,-2.226 0.97,0 2.092,-0.426 3.333,-0.888 4.866,-1.776 22.008,-11.18 36.27,-19.031 10.615,-5.84 12.708,-7.05 14.055,-8.184 1.444,-1.22 1.414,-5.624 2.56,-3.055 1.024,2.306 5.062,10.34 6.45,12.773 1.297,2.264 2.428,4.2 2.845,4.917 1.287,2.199 -1.48,0.296 -2.898,0.888 C 5.313,-2.907 4.159,-2.258 0,-0.009 m -13.092,26.502 c -2.499,-4.44 -7.276,-13.101 -7.611,-13.581 -0.335,-0.479 -0.376,-0.781 -0.909,-0.479 -0.965,0.55 -12.849,6.775 -12.849,6.775 0,0 -0.527,0.421 -0.14,0.889 0.503,0.627 5.414,9.472 8.715,14.35 3.513,5.192 8.64,4.354 11.512,2.584 3.83,-2.368 3.83,-6.003 1.282,-10.547" /></g><g
           transform="translate(188.6011,396.7998)"
           id="g116"><path
             id="path118"
             style="fill:#000000;fill-opacity:1;fill-rule:nonzero;stroke:none"
             d="m 0,0 c -0.756,0.186 -1.396,0.296 -3.52,1.289 -2.123,0.99 -7.927,4.527 -16.281,9.836 -2.806,1.775 -8.022,5.136 -13.797,8.854 l -15.277,9.839 c -5.841,3.761 -11.841,7.506 -12.658,8.077 -1.134,0.775 -0.808,1.794 -0.704,2.519 0.198,1.403 -0.015,1.576 -0.776,1.072 -0.962,-0.634 -3.789,-2.526 -7.104,-4.931 -3.316,-2.405 -6.619,-4.889 -7.815,-5.823 -3.064,-2.383 -4.239,-3.083 -2.419,-3.291 1.235,-0.139 2.336,0 2.813,-1.583 2.664,-8.802 10.476,-35.083 11.313,-37.243 0.992,-2.547 2.242,-7.427 3.964,-13.235 1.312,-4.416 2.664,-9.262 3.617,-12.613 0.398,-1.29 0.644,-2.62 0.731,-3.966 0.08,-2.012 0.148,-2.176 1.099,-1.069 0.352,0.413 1.042,1.236 1.589,1.888 1.542,1.841 6.35,6.703 8.472,8.758 1.309,1.265 3.156,2.923 3.715,3.418 0.941,0.832 -0.077,0.668 -1.436,1.144 -0.612,0.211 -1.08,0.722 -1.391,1.684 -0.568,1.775 -1.139,4.032 -1.51,5.236 -0.186,0.593 -0.236,0.662 0.19,0.943 0.426,0.284 9.694,7.951 12.385,9.862 2.691,1.91 7.291,5.189 8.07,5.684 0.778,0.495 0.757,0.546 1.48,0.054 0.722,-0.495 3.188,-2.267 4.463,-3.33 0.717,-0.649 1.066,-1.608 0.936,-2.566 -0.166,-1.113 -0.296,-1.813 0.84,-1.094 0.643,0.407 8.881,5.073 14.543,7.551 2.368,1.04 3.85,1.674 4.591,1.998 1.186,0.508 0.479,0.887 -0.11,1.032 m -40.31,5.331 c -0.725,-0.492 -0.84,-0.571 -2.557,-1.779 -1.992,-1.409 -3.165,-2.367 -5.136,-3.814 -1.184,-0.889 -3.256,-2.74 -3.638,-2.998 -0.497,-0.338 -0.497,-0.338 -0.71,0.46 -0.296,1.103 -2.265,7.992 -2.961,10.246 -0.695,2.251 -1.722,5.549 -2.122,6.652 -0.85,2.333 -0.45,2.664 0.636,1.911 0.684,-0.463 2.62,-1.911 3.822,-2.478 1.202,-0.565 8.395,-5.231 9.875,-6.151 0.858,-0.545 1.747,-1.041 2.664,-1.478 0.542,-0.275 0.542,-0.275 0.115,-0.565" /></g><g
           transform="translate(341.25,379.895)"
           id="g120"><path
             id="path122"
             style="fill:#000000;fill-opacity:1;fill-rule:nonzero;stroke:none"
             d="m 0,0 c -0.982,0.64 -0.966,0.937 0.507,1.479 1.469,0.546 3.095,0.83 4.411,2.476 1.319,1.645 34.041,42.749 35.03,44.108 0.99,1.358 0.973,3.157 0.79,4.195 -0.179,1.039 0.108,1.293 1.006,0.755 0.895,-0.539 5.198,-3.733 9.113,-6.854 3.913,-3.125 8.288,-6.783 9.176,-7.788 0.888,-1.006 0.683,-1.042 -0.252,-1.042 -0.933,0 -2.073,0.072 -3.255,-1.005 C 55.341,35.246 33.068,9.809 30.877,7.504 29.963,6.547 23.929,-1.276 22.292,-3.67 c -1.152,-1.695 -4.273,-4.408 -4.234,-8.944 0.022,-2.07 -0.353,-1.773 -1.408,-0.927 -0.512,0.421 -4.542,3.967 -8.47,7.158 C 4.036,-3.014 -0.017,0 -0.017,0" /></g><g
           transform="translate(441.2451,301.6514)"
           id="g124"><path
             id="path126"
             style="fill:#000000;fill-opacity:1;fill-rule:nonzero;stroke:none"
             d="m 0,0 c 4.171,1.268 6.879,2.225 8.049,2.564 1.993,0.592 2.221,1.112 2.665,-0.755 0.296,-1.242 3.376,-8.247 4.958,-27.49 1.581,-19.24 0.147,-30.512 0.147,-31.623 0,-1.109 -0.072,-1.258 -1.036,-1.258 h -18.87 c -1.257,0 -1.257,0 -1.257,1.184 0,1.185 0.368,18.427 -0.887,30.934 -1.261,12.506 -3.908,21.49 -4.28,22.306 -0.368,0.812 -0.072,0.885 0.52,1.033 C -9.398,-2.957 -4.253,-1.296 0,0" /></g><g
           transform="translate(270.8086,93.7129)"
           id="g128"><path
             id="path130"
             style="fill:#000000;fill-opacity:1;fill-rule:nonzero;stroke:none"
             d="m 0,0 c 9.846,1.131 19.558,3.2 29.01,6.175 0.804,0.252 0.947,0.545 1,-0.373 0.053,-0.917 3.174,-16.772 3.422,-18.649 0.249,-1.877 -0.083,-2.317 -1.184,-1.512 -1.102,0.805 -3.473,1.687 -6.033,1.358 -2.561,-0.328 -11.69,-1.924 -12.545,-2.033 -0.856,-0.11 -0.663,-0.154 -0.609,-1.166 0.052,-1.013 5.328,-41.368 5.668,-43.872 0.34,-2.505 1.247,-3.032 2.105,-3.686 1.353,-1.033 1.903,-1.24 -0.169,-1.607 -1.507,-0.267 -6.858,-1.27 -11.72,-1.868 -5.141,-0.63 -10.185,-0.968 -10.952,-0.992 -1.479,-0.044 -1.524,0 -0.437,1.276 1.086,1.276 1.929,2.442 1.823,4.47 -0.107,2.028 -5.252,42.366 -5.356,43.81 -0.103,1.444 0.042,1.063 -1.332,0.991 -1.373,-0.071 -11.378,-0.944 -12.612,-1.056 -1.235,-0.113 -3.44,-1.498 -4.441,-2.478 -1,-0.979 -1.142,0.592 -1.453,2.247 -0.355,1.898 -1.88,15.611 -2.028,16.719 -0.148,1.106 -0.1,1.447 0.657,1.408 9.067,-0.485 18.161,-0.204 27.18,0.838" /></g><g
           transform="translate(71.6279,111.8086)"
           id="g132"><path
             id="path134"
             style="fill:#000000;fill-opacity:1;fill-rule:nonzero;stroke:none"
             d="m 0,0 c 8.901,-11.918 15.647,-17.947 16.509,-18.809 0.861,-0.861 0.837,-0.645 1.699,0 0.799,0.592 12.275,11.435 12.953,12.213 0.808,0.927 0.992,1.087 -0.234,1.067 -1.11,-0.022 -2.32,-0.107 -3.043,0.63 -1.462,1.48 -3.256,2.83 -7.835,7.844 -4.979,5.455 -6.157,6.891 -7.009,8.037 -0.382,0.518 -0.326,0.799 0.432,1.341 1.003,0.716 36.033,24.501 37.374,25.268 1.341,0.766 3.398,0.621 4.21,0.669 0.811,0.047 0.479,0.621 0,1.148 -0.48,0.527 -8.221,10.582 -12.353,17.672 -0.483,0.829 -0.672,0.767 -1.054,0 -0.382,-0.767 -0.613,-2.741 -2.336,-3.745 -1.722,-1.003 -45.647,-30.294 -47.569,-31.552 -1.921,-1.258 -4.114,-0.813 -5.168,-0.719 -1.054,0.095 -1.101,-0.24 -0.669,-0.956 C -13.661,19.392 -8.901,11.899 0,-0.021" /></g><g
           transform="translate(88.6426,218.2246)"
           id="g136"><path
             id="path138"
             style="fill:#000000;fill-opacity:1;fill-rule:nonzero;stroke:none"
             d="m 0,0 c 2.144,0.491 3.937,2.566 4.5,3.62 0.562,1.055 1.053,0.915 1.479,-0.807 0.427,-1.723 3.328,-14.055 6.33,-22.219 4.392,-11.953 8.365,-19.3 8.717,-19.759 0.352,-0.459 -0.281,-0.844 -0.888,-1.089 -0.607,-0.246 -12.477,-5.986 -14.291,-6.809 -0.761,-0.343 -0.889,-0.269 -0.521,0.548 0.296,0.681 0.366,2.528 -0.19,3.848 -2.664,6.217 -9.44,22.035 -9.712,22.615 -0.329,0.705 -0.142,0.657 -0.888,0.376 -0.746,-0.281 -7.4,-2.285 -8.063,-2.483 -0.542,-0.166 -0.409,-0.27 -0.234,-0.888 0.366,-1.306 3.567,-10.71 4.055,-12.016 0.61,-1.627 1.261,-2.368 2.037,-2.708 0.932,-0.397 0.964,-0.518 -0.175,-0.888 -0.906,-0.296 -14.286,-4.929 -14.964,-5.159 -1.418,-0.489 -1.775,-0.634 -1.107,0.71 0.347,0.705 0.27,2.004 0.107,2.407 -0.373,0.938 -4.579,12.305 -4.86,13.288 -0.282,0.982 -0.092,0.752 -1.217,0.423 -1.125,-0.328 -6.512,-1.672 -7.442,-1.953 -0.929,-0.282 -0.752,-0.235 -0.42,-1.407 1.367,-4.845 8.33,-22.141 9.502,-25.187 1.172,-3.046 2.998,-4.127 4.123,-4.5 1.125,-0.373 0.888,-0.983 -1.169,-1.734 -2.827,-1.037 -12.506,-5.655 -14.055,-6.172 -1.548,-0.519 -1.498,-0.42 -2.072,0.657 -0.574,1.077 -4.124,8.049 -9.626,22.236 -5.42,13.981 -8.217,28.225 -8.546,29.726 -0.328,1.501 -0.189,1.924 0.654,1.453 0.844,-0.471 1.708,-1.637 4.334,-1.027 2.625,0.61 54.587,14.907 54.587,14.907" /></g><g
           transform="translate(67.6201,296.9019)"
           id="g140"><path
             id="path142"
             style="fill:#000000;fill-opacity:1;fill-rule:nonzero;stroke:none"
             d="m 0,0 c 1.213,-0.296 1.628,-0.05 1.282,-1.382 -1.62,-6.776 -2.793,-13.652 -3.511,-20.585 -1.48,-14.247 -0.693,-27.384 -0.74,-28.616 -0.051,-1.281 -0.246,-1.281 -1.578,-1.281 -1.332,0 -16.665,-1.007 -18.145,-1.012 -1.48,-0.006 -1.427,-0.149 -1.418,0.938 0.008,1.086 -1.208,15.097 0.42,31.807 1.628,16.709 3.979,22.594 4.239,23.494 0.261,0.9 0.331,0.974 1.379,0.645 C -17.024,3.68 -2.087,0.512 0,0" /></g><g
           transform="translate(280.8193,474.25)"
           id="g144"><path
             id="path146"
             style="fill:#000000;fill-opacity:1;fill-rule:nonzero;stroke:none"
             d="m 0,0 c -2.335,0.328 -3.529,0.45 -4.568,0.592 -8.099,0.995 -14.261,1.256 -16.633,1.354 -3.086,0.132 -3.104,0.311 -1.479,-1.479 1.11,-1.208 1.38,-3.34 1.184,-6.288 -0.196,-2.947 -4.257,-53.921 -4.365,-55.2 -0.112,-1.28 -1.509,-2.769 -2.075,-3.503 -0.565,-0.734 -0.399,-1.161 0.751,-1.127 1.148,0.034 17.811,-1.245 19.06,-1.435 1.749,-0.264 1.374,0.126 0.457,2.017 -0.637,1.31 -0.775,1.99 -0.41,4.586 0.366,2.595 4.653,46.943 5.188,51.265 0.197,1.6 0.366,2.839 0.565,3.847 0.558,1.777 1.232,3.35 2.664,4.237 0.886,0.549 1.183,0.917 -0.336,1.131" /></g><g
           transform="translate(366.1309,444.3848)"
           id="g148"><path
             id="path150"
             style="fill:#000000;fill-opacity:1;fill-rule:nonzero;stroke:none"
             d="m 0,0 c -1.057,0.644 -1.478,0.867 -3.582,2.074 -1.29,0.731 -4.976,2.902 -10.012,5.473 -3.205,1.634 -6.783,3.255 -11.188,5.329 -8.501,3.979 -19.073,7.468 -24.277,9.142 -2.368,0.83 -4.061,1.184 -4.635,1.367 -2.369,0.747 -2.105,0.27 -1.525,-0.8 0.581,-1.074 0.794,-3.232 0,-5.33 l -0.182,-0.57 c 0,0 -16.716,-50.109 -17.466,-52.187 -0.754,-2.078 -1.258,-3.205 -2.962,-3.955 -1.547,-0.684 -1.775,-0.701 -0.314,-1.084 1.858,-0.477 5.994,-1.684 9.036,-2.691 3.041,-1.004 7.62,-2.555 9.257,-3.206 1.405,-0.557 2.011,-1.12 1.558,0.297 -0.591,1.681 -0.647,3.506 -0.164,5.223 0.594,2.031 5.33,14.754 5.583,15.365 0.257,0.61 0.32,0.867 0.537,1.327 0.261,0.554 0.17,0.527 0.674,0.264 0.5,-0.264 7.627,-3.552 11.216,-5.393 2.844,-1.457 2.981,-1.584 4.145,-2.188 2.411,-1.268 1.275,-5.082 2.939,-1.451 0.696,1.528 2.527,5.813 4.358,9.365 1.831,3.552 2.692,5.446 3.189,6.487 0.73,1.527 0.296,1.367 -0.861,1.034 -1.921,-0.547 -2.578,-0.19 -5.606,1.287 -2.935,1.441 -12.34,5.763 -13.057,6.053 -0.717,0.287 -0.62,0.38 -0.431,0.814 0.191,0.43 2.959,7.694 3.256,8.534 0.373,1.124 0.496,1.004 1.167,0.78 0.814,-0.276 7.141,-2.771 12.673,-5.536 3.505,-1.747 9.498,-4.835 11.843,-6.263 2.535,-1.551 5.236,-2.888 5.519,-3.955 0.474,-1.774 0.297,-3.012 1.829,-0.417 0.636,1.09 3.848,6.857 5.422,9.822 1.575,2.965 2.091,3.772 2.388,4.485 0.12,0.294 0.12,0.294 -0.297,0.537" /></g><g
           transform="translate(178.7935,109.1025)"
           id="g152"><path
             id="path154"
             style="fill:#000000;fill-opacity:1;fill-rule:nonzero;stroke:none"
             d="m 0,0 c -0.944,0.403 -12.747,6.578 -19.854,11.743 -7.717,5.624 -15.742,12.815 -15.896,12.956 -1.311,1.217 -1.571,0.871 -1.184,-0.73 0.415,-1.688 -0.645,-3.668 -2.072,-5.442 L -39.37,18.036 C -43.147,13.04 -50.834,4.159 -55.425,-1.681 -61.84,-9.848 -72.722,-23.29 -74.142,-24.858 c -1.421,-1.57 -2.114,-1.312 -3.902,-1.457 -1.788,-0.145 -1.42,-0.658 -0.216,-1.64 5.526,-4.979 11.353,-9.614 17.45,-13.877 3.348,-2.32 9.718,-6.684 14.407,-9.544 7.368,-4.493 13.465,-7.654 14.028,-7.938 0.947,-0.474 1.202,-0.474 1.382,-0.11 0.181,0.364 0.373,0.95 1.063,2.226 0.69,1.276 5.541,10.873 6.453,12.113 0.912,1.24 0.533,1.539 -0.343,1.48 -0.876,-0.059 -2.439,-0.374 -3.256,0.027 -0.817,0.399 -2.01,0.568 -8.754,4.215 -5.105,2.824 -10.031,5.959 -14.75,9.386 -0.657,0.548 -0.618,0.619 -0.109,1.276 0.509,0.657 4.629,5.921 5.248,6.743 0.619,0.823 0.693,0.889 1.24,0.477 0.296,-0.213 2.159,-1.625 4.441,-3.087 2.072,-1.324 4.511,-2.686 5.446,-3.221 1.969,-1.131 3.7,-1.832 4.145,-3.354 0.591,-1.983 0.591,-1.983 1.42,-0.657 0.61,0.98 7.214,12.32 8.339,14.016 1.258,1.891 0.559,1.261 -0.731,1.184 -0.962,-0.05 -2.368,0.065 -4.18,1.124 -0.87,0.504 -3.179,1.759 -5.13,2.988 -2.143,1.352 -3.913,2.664 -4.277,2.919 -0.693,0.473 -0.888,0.434 -0.11,1.128 0.779,0.692 4.935,6.15 5.444,6.695 0.509,0.545 0.592,0.548 1.166,0.189 0.282,-0.174 5.118,-3.694 10.094,-6.674 3.692,-2.209 5.698,-3.316 7.788,-4.509 1.833,-1.051 1.963,-1.519 2.306,-2.501 0.705,-2.013 0.888,-2.072 2.416,0.858 0.429,0.823 6.512,12.557 6.92,13.025 0.409,0.467 0.314,0.657 -1.302,1.349" /></g><g
           transform="translate(393.6611,76.166)"
           id="g156"><path
             id="path158"
             style="fill:#000000;fill-opacity:1;fill-rule:nonzero;stroke:none"
             d="m 0,0 c -1.103,0.071 -2.299,-0.255 -3.879,0.716 -1.206,0.74 -3.221,2.244 -7.167,5.402 -3.946,3.158 -9.262,7.696 -9.262,7.696 0,0 2.37,3.591 2.37,6.892 0,4.164 -0.449,10.065 -4.44,15.721 -3.684,5.207 -10.101,9.147 -13.795,10.382 -1.87,0.624 -5.142,1.29 -7.857,0.556 -2.444,-0.702 -4.823,-1.623 -7.103,-2.75 -1.883,-0.95 -4.162,-2.324 -5.922,-3.378 -9.397,-5.663 -16.5,-9.327 -24.482,-12.835 -0.297,-0.133 -2.367,-1.018 -2.69,-1.133 -1.699,-0.592 -1.37,-0.888 -0.196,-1.214 1.17,-0.326 2.512,-1.267 3.488,-3.256 4.608,-9.088 23.777,-49.487 24.547,-51.37 0.862,-2.105 0.832,-3.076 0.2,-4.576 -0.589,-1.389 -0.154,-1.143 1.187,-0.537 0.555,0.249 5.822,2.369 10.291,4.524 3.227,1.559 7.186,3.809 8.03,4.232 2.009,1.004 1.754,1.143 0.059,1.457 -0.964,0.181 -1.648,0.82 -2.128,1.776 -0.48,0.957 -1.064,2.11 -3.766,7.33 -2.143,4.143 -2.695,5.535 -2.96,5.949 -0.099,0.148 -0.106,0.169 0.065,0.272 0.396,0.235 1.132,0.631 2.308,1.276 5.159,2.833 8.196,4.63 10.998,6.737 0.735,0.554 0.696,0.551 1.34,0.051 0.384,-0.296 10.933,-9.961 11.249,-10.225 1.319,-1.122 3.462,-3.095 5.329,-1.814 3.291,2.279 11.288,8.375 13.393,10.089 2.563,2.071 1.886,1.97 0.825,2.042 m -39.113,15.306 c -3.637,-2.297 -13.447,-7.654 -14.114,-8.04 -0.671,-0.383 -0.674,-0.296 -1.055,0.415 0,0 -5.839,12.137 -6.174,12.794 -0.332,0.657 -0.477,0.719 0,0.909 0.481,0.189 8.614,4.593 12.435,6.556 3.817,1.963 9.043,0.983 10.764,-2.072 2.009,-3.552 1.777,-8.288 -1.863,-10.576" /></g><g
           transform="translate(428.0791,113.0098)"
           id="g160"><path
             id="path162"
             style="fill:#000000;fill-opacity:1;fill-rule:nonzero;stroke:none"
             d="m 0,0 c -1.181,-0.175 -3.659,0.073 -5.269,1.613 l -0.45,0.391 c -8.77,7.536 -38.347,33.127 -41.952,36.113 -1.187,1.258 -1.86,2.916 -1.884,4.648 -0.028,1.208 -0.622,1.131 -1.692,-0.356 -0.196,-0.269 -4.69,-5.781 -6.832,-8.33 -2.094,-2.489 -6.58,-7.258 -7.013,-7.696 -1.239,-1.299 -1.212,-1.616 0,-1.525 1.682,0.06 3.347,-0.381 4.779,-1.263 5.505,-4.878 36.147,-31.673 41.845,-36.705 l 0.168,-0.155 c 1.682,-1.462 2.293,-4.171 2.29,-5.381 -0.004,-1.21 0.508,-1.318 1.706,0.021 l 0.017,0.018 c 0.083,0.077 0.172,0.166 0.267,0.26 0.179,0.181 0.643,0.748 1.704,1.978 0.374,0.411 7.132,7.811 9.196,10.688 0.999,1.395 2.959,3.511 3.357,3.991 1.15,1.378 0.968,1.865 -0.226,1.687" /></g><g
           transform="translate(250.1675,1.1445)"
           id="g164"><path
             id="path166"
             style="fill:#211d1d;fill-opacity:1;fill-rule:nonzero;stroke:none"
             d="m 0,0 c -137.695,0.083 -249.251,111.773 -249.167,249.47 0.06,100.088 59.97,190.439 152.143,229.449 C 29.964,532.151 176.064,472.354 229.292,345.367 282.313,218.877 223.215,73.316 97.021,19.59 66.328,6.598 33.326,-0.062 0,0 m 0,486.67 c -130.915,0 -237.401,-106.501 -237.401,-237.402 0,-130.899 106.502,-237.415 237.416,-237.415 130.914,0 237.402,106.504 237.402,237.415 0,130.91 -106.504,237.402 -237.402,237.402" /></g><g
           transform="translate(250.166,101.4648)"
           id="g168"><path
             id="path170"
             style="fill:#211d1d;fill-opacity:1;fill-rule:nonzero;stroke:none"
             d="m 0,0 c -81.995,0.113 -148.376,66.674 -148.265,148.671 0.111,81.995 66.673,148.376 148.667,148.266 81.995,-0.114 148.38,-66.673 148.267,-148.672 C 148.591,88.668 112.877,34.895 57.976,11.702 39.635,3.94 19.918,-0.041 0,-0.003 m 0,287.807 c -76.575,0 -138.873,-62.299 -138.873,-138.87 0,-76.574 62.298,-138.872 138.873,-138.872 76.575,0 138.87,62.295 138.87,138.872 0,76.575 -62.298,138.87 -138.87,138.87" /></g><g
           transform="translate(329.165,249.8511)"
           id="g172"><path
             id="path174"
             style="fill:#000000;fill-opacity:1;fill-rule:nonzero;stroke:none"
             d="m 0,0 c 0,-43.931 -35.613,-79.544 -79.548,-79.544 -43.934,0 -79.535,35.613 -79.535,79.544 0,43.931 35.616,79.547 79.547,79.547 C -35.604,79.547 0.012,43.934 0.012,0" /></g><g
           transform="translate(298.6992,303.4736)"
           id="g176"><path
             id="path178"
             style="fill:#ffffff;fill-opacity:1;fill-rule:nonzero;stroke:none"
             d="m 0,0 -32.901,-13.161 27.232,26.212 c 0,0 -0.838,0.856 -8.113,4.668 -3.402,1.729 -6.942,3.168 -10.586,4.295 -1.281,-1.183 -5.245,-4.916 -10.33,-9.881 -2.706,-2.64 -5.738,-5.884 -8.881,-8.906 -5.799,-5.586 -11.959,-11.43 -17.08,-16.089 -16.55,-15.055 -30.309,-30.01 -30.309,-30.01 0,0 14.706,6.217 26.668,11.465 11.962,5.248 25.425,11.965 25.425,11.965 0,0 -16.151,-14.954 -27.826,-26.47 -11.674,-11.515 -30.193,-29.637 -30.193,-29.637 0,0 12.264,4.965 21.384,9.301 9.12,4.337 18.394,8.375 18.394,8.375 0,0 -8.522,-11.815 -20.336,-25.724 -11.056,-13.024 -23.068,-27.568 -24.569,-29.388 0.519,-0.474 1.164,-1.045 1.824,-1.578 L -5.073,-32.452 -44.405,-48.603 0,0" /></g><g
           transform="translate(224.3794,41.2363)"
           id="g180"><path
             id="path182"
             style="fill:#000000;fill-opacity:1;fill-rule:nonzero;stroke:none"
             d="m 0,0 c -0.71,2.273 -2.996,9.83 -3.256,10.831 -0.261,1 -0.462,1.776 -1.143,0.749 -1.237,-1.853 -1.954,-3.206 -6.009,-5.302 -7.06,-3.646 -14.072,-1.409 -17.891,0.782 -6.808,3.901 -9.905,12.544 -8.078,20.096 2.11,7.477 9.049,13.49 16.897,13.554 4.398,0.036 11.562,-1.385 15.928,-8.024 2.507,-3.816 2.51,-5.415 2.681,-7.637 0.095,-1.22 0.649,-0.652 1.365,0.095 0.716,0.745 6.409,6.215 8.144,7.843 1.734,1.628 5.07,4.668 5.846,5.178 0.775,0.509 1.048,0.98 0.441,1.622 -0.388,0.411 -2.288,0.956 -3.724,2.759 -2.072,2.613 -2.664,3.48 -5.485,6.325 -4.387,4.441 -12.963,9.689 -24.865,9.591 -15.588,-0.13 -25.753,-9.224 -30.786,-17.911 h -0.156 c -3.123,-5.615 -4.778,-11.927 -4.807,-18.353 l 0.142,-0.071 c 0.132,-10.047 4.534,-22.956 18.056,-30.715 10.331,-5.92 20.381,-5.547 26.375,-3.833 3.848,1.099 4.789,1.567 7.886,2.821 2.134,0.868 4.058,0.409 4.597,0.578 0.843,0.266 0.838,0.81 0.411,1.633 -0.426,0.824 -1.847,5.104 -2.557,7.377" /></g><g
           transform="translate(452.6045,194.7012)"
           id="g184"><path
             id="path186"
             style="fill:#000000;fill-opacity:1;fill-rule:nonzero;stroke:none"
             d="m 0,0 c -2.345,-0.396 -10.143,-1.643 -11.167,-1.775 -1.025,-0.134 -1.812,-0.22 -0.887,-1.031 1.667,-1.48 2.914,-2.368 4.439,-6.67 2.666,-7.489 -0.496,-14.133 -3.18,-17.621 -4.785,-6.216 -13.768,-8.129 -21.018,-5.299 -7.126,3.097 -12.138,10.785 -11.153,18.567 0.554,4.365 2.925,11.271 10.095,14.702 4.117,1.972 5.7,1.776 7.929,1.632 1.221,-0.071 0.733,0.553 0.088,1.361 -0.646,0.809 -5.289,7.19 -6.675,9.129 -1.386,1.939 -3.943,5.654 -4.34,6.488 -0.398,0.835 -0.831,1.185 -1.55,0.658 -0.46,-0.329 -1.258,-2.14 -3.238,-3.319 -2.867,-1.711 -3.804,-2.18 -7.006,-4.585 -4.983,-3.747 -11.347,-11.544 -12.853,-23.349 -1.969,-15.464 5.671,-26.763 13.619,-32.932 l -0.03,-0.153 c 5.139,-3.849 11.171,-6.338 17.531,-7.236 l 0.088,0.131 c 9.975,-1.219 23.36,1.404 32.861,13.756 7.26,9.437 8.242,19.448 7.352,25.62 -0.573,3.957 -0.908,4.955 -1.736,8.191 C 8.597,-1.503 9.312,0.341 9.217,0.9 9.066,1.771 8.527,1.839 7.655,1.524 6.78,1.211 2.346,0.385 0,-0.015" /></g><g
           transform="translate(238.8555,426.979)"
           id="g188"><path
             id="path190"
             style="fill:#000000;fill-opacity:1;fill-rule:nonzero;stroke:none"
             d="m 0,0 c -1.669,1.7 -7.151,7.381 -7.834,8.155 -0.683,0.771 -1.217,1.366 -1.359,0.149 -0.257,-2.217 -0.274,-3.748 -2.93,-7.459 -4.62,-6.466 -11.883,-7.679 -16.28,-7.466 -7.839,0.365 -14.541,6.644 -16.358,14.208 -1.534,7.615 1.9,16.132 8.853,19.768 3.899,2.042 10.922,4.043 17.836,0.125 3.971,-2.247 4.702,-3.673 5.868,-5.573 0.642,-1.04 0.889,-0.28 1.169,0.707 0.284,0.99 2.876,8.452 3.67,10.697 0.798,2.244 2.369,6.465 2.843,7.273 0.473,0.804 0.486,1.349 -0.345,1.646 -0.534,0.192 -2.474,-0.193 -4.573,0.757 -3.045,1.372 -3.968,1.876 -7.77,3.126 -5.918,1.944 -15.951,2.711 -26.503,-2.808 -13.812,-7.226 -18.715,-19.954 -19.242,-29.992 l -0.141,-0.064 c -0.146,-3.198 0.154,-6.402 0.888,-9.518 0.645,-3.136 1.723,-6.171 3.203,-9.014 h 0.156 c 4.704,-8.878 14.505,-18.352 30.08,-19.095 11.894,-0.558 20.664,4.359 25.22,8.622 2.924,2.73 3.552,3.575 5.729,6.107 1.504,1.744 3.424,2.213 3.829,2.609 0.629,0.622 0.375,1.105 -0.379,1.639 C 4.88,-4.863 1.659,-1.697 -0.01,0" /></g><g
           transform="translate(412.1924,325.0596)"
           id="g192"><path
             id="path194"
             style="fill:#000000;fill-opacity:1;fill-rule:nonzero;stroke:none"
             d="m 0,0 c 0.967,2.177 4.243,9.358 4.709,10.279 0.47,0.922 0.821,1.633 -0.359,1.317 -2.156,-0.57 -3.585,-1.117 -8.014,0 -7.697,1.924 -11.499,8.237 -12.919,12.403 -2.536,7.427 0.847,15.963 7.203,20.424 6.513,4.222 15.69,4.143 21.641,-0.979 3.325,-2.881 7.764,-8.675 6.658,-16.547 -0.633,-4.52 -1.686,-5.723 -3.026,-7.504 -0.737,-0.979 0.056,-0.918 1.084,-0.83 1.028,0.09 8.918,0.431 11.296,0.513 2.38,0.078 6.891,0.16 7.808,0.025 0.918,-0.132 1.434,0.046 1.405,0.928 -0.017,0.566 -1.089,2.23 -0.974,4.532 0.164,3.336 0.295,4.378 0.056,8.373 -0.366,6.217 -3.333,15.836 -12.339,23.625 -11.791,10.198 -25.431,10.08 -34.958,6.886 l -0.113,0.111 C -16.893,61.4 -22.303,57.754 -26.57,52.952 l 0.063,-0.145 c -6.537,-7.634 -11.756,-20.236 -6.722,-34.99 3.848,-11.269 11.638,-17.625 17.272,-20.3 3.614,-1.711 4.632,-1.984 7.783,-3.083 2.177,-0.762 3.319,-2.37 3.849,-2.604 0.806,-0.36 1.163,0.057 1.383,0.953 0.224,0.896 1.989,5.051 2.96,7.228" /></g></g></g></g></svg>