<svg version="1.2" xmlns="http://www.w3.org/2000/svg" viewBox="0 0 516 514" width="516" height="514"><defs><clipPath clipPathUnits="userSpaceOnUse" id="cp1"><path d="m-530.2-532.57h1577.99v1577.99h-1577.99z"/></clipPath></defs><style>.a{fill:#d40909}.b{fill:#fff}</style><g clip-path="url(#cp1)"><path class="a" d="m508.6 256.9c0 138.6-112.4 251-251 251-138.7 0-251-112.4-251-251 0-138.6 112.4-251.1 251-251.1 138.7 0 251.1 112.4 251 251.1z"/><path class="b" d="m412.5 87.7l-103.8 41.5 85.9-82.7c0 0-2.7-2.7-25.6-14.8q-16.2-8.2-33.4-13.5c-4.1 3.7-16.6 15.5-32.6 31.2-8.6 8.3-18.1 18.5-28.1 28.1-18.2 17.6-37.7 36-53.8 50.7-52.3 47.6-95.7 94.8-95.7 94.8 0 0 46.4-19.7 84.1-36.2 37.8-16.6 80.3-37.8 80.3-37.8 0 0-51 47.2-87.8 83.6-36.9 36.3-95.3 93.5-95.3 93.5 0 0 38.7-15.7 67.5-29.4 28.8-13.7 58-26.4 58-26.4 0 0-26.9 37.3-64.1 81.2-35 41.1-72.9 87-77.6 92.7 1.6 1.5 3.7 3.3 5.8 5l300.2-259.1-124.2 51z"/></g></svg>